<svg xmlns="http://www.w3.org/2000/svg" viewBox="0 0 1254 1254" preserveAspectRatio="xMidYMid meet">
  <!-- White fills: face, hands, shirt, book pages — always white -->
  <g transform="translate(0,1254) scale(0.1,-0.1)" fill="#FFFFFF" stroke="none">
    <path d="M10375 10539 c-49 -11 -114 -24 -144 -30 -59 -11 -245 -8 -273 5 -25
11 -106 -75 -146 -156 -56 -115 -83 -299 -59 -412 l8 -39 19 31 c46 74 193
105 275 58 25 -15 55 -42 67 -60 22 -33 22 -33 56 -19 19 8 46 11 61 8 25 -5
29 -2 40 34 45 152 270 195 375 71 l26 -32 90 13 c52 7 90 17 90 23 0 33 -25
91 -51 120 -46 53 -69 118 -81 224 -12 114 -31 143 -112 167 -65 20 -131 18
-241 -6z m148 -340 c50 -13 106 -63 91 -79 -9 -9 -27 -8 -73 1 -48 9 -78 9
-132 0 -79 -13 -89 -10 -89 24 0 49 113 79 203 54z m-492 -79 c24 -14 25 -46
0 -59 -10 -6 -20 -8 -23 -6 -9 9 -112 -15 -156 -36 -53 -26 -62 -19 -37 29 36
66 153 105 216 72z"/>
<path d="M10770 10452 c-1 -53 90 -164 159 -194 60 -26 64 -15 4 15 -59 31
-93 66 -132 137 -17 30 -31 49 -31 42z"/>
<path d="M11226 10317 c-15 -11 -16 -15 -3 -25 11 -10 16 -7 25 13 13 28 5 32
-22 12z"/>
<path d="M11137 10237 c-133 -158 -185 -247 -113 -192 11 8 31 15 44 15 27 0
24 -3 105 103 65 87 66 89 33 111 -24 15 -26 15 -69 -37z m73 12 c0 -18 -111
-156 -140 -174 -25 -16 -2 25 63 106 60 76 77 91 77 68z"/>
<path d="M10390 10047 c-77 -41 -109 -132 -75 -215 76 -181 337 -142 353 53
12 141 -145 233 -278 162z m134 -99 c31 -43 6 -118 -37 -118 -41 0 -68 88 -38
124 19 23 57 20 75 -6z"/>
<path d="M11055 10020 c-31 -12 -68 -57 -86 -103 -14 -36 -21 -42 -45 -42 -26
0 -29 4 -38 55 -6 30 -13 54 -16 54 -3 -1 -30 -5 -60 -8 -116 -15 -110 -11
-110 -72 0 -123 -75 -206 -200 -221 -91 -11 -200 62 -216 146 -15 76 -102 84
-112 11 -2 -14 -14 -57 -28 -96 -32 -94 -32 -136 2 -163 37 -29 88 -27 154 8
66 35 80 53 62 82 -7 11 -11 23 -8 27 11 10 46 -31 46 -53 0 -19 7 -23 48 -29
54 -7 142 -57 142 -80 0 -31 -148 -114 -251 -141 -84 -22 -196 -16 -263 13
-46 21 -48 23 -42 54 5 26 4 30 -6 20 -7 -7 -11 -33 -10 -62 2 -48 -10 -66
-22 -34 -19 50 18 160 64 189 20 13 22 -3 3 -32 l-18 -28 31 25 c24 19 29 29
23 42 -5 9 -9 29 -9 43 0 15 -3 25 -7 23 -92 -47 -187 -51 -244 -9 -17 12 -32
21 -34 19 -1 -1 1 -52 6 -112 12 -148 53 -239 146 -327 71 -66 173 -126 154
-90 -18 34 -12 37 14 8 53 -56 100 -72 215 -72 124 0 181 21 268 99 59 54 67
48 19 -16 -85 -111 -273 -157 -425 -105 -23 8 -42 13 -42 11 0 -2 9 -26 20
-54 11 -28 20 -60 20 -71 0 -10 23 -65 51 -121 48 -95 52 -101 65 -83 51 71
171 189 308 300 274 224 346 331 360 535 4 47 9 64 18 61 56 -18 78 -13 117
26 48 47 64 100 65 208 1 92 -16 135 -64 160 -32 17 -37 17 -65 5z m62 -87 c2
-6 -5 -13 -16 -16 -34 -9 -57 -54 -37 -76 23 -25 21 -84 -4 -106 -22 -20 -26
-14 -9 14 18 28 3 74 -21 66 -16 -5 -20 -2 -20 15 0 61 92 150 107 103z m-556
-319 c66 -33 99 -75 99 -127 0 -31 -3 -38 -10 -27 -5 8 -10 23 -10 33 0 25
-77 99 -127 121 -24 10 -43 23 -43 28 0 12 32 2 91 -28z m-111 -263 c0 -23
-81 -63 -137 -68 -52 -5 -62 -3 -87 19 l-28 24 68 -4 c52 -3 81 1 119 16 59
24 65 25 65 13z"/>
<path d="M9887 9976 c-133 -48 -155 -215 -41 -302 81 -62 222 -29 260 62 64
154 -65 295 -219 240z m152 -102 c25 -32 27 -61 5 -92 -33 -47 -102 1 -90 63
11 56 53 70 85 29z"/>
<path d="M9725 9807 c-14 -32 23 -207 44 -207 9 0 -2 111 -14 130 -5 8 -12 33
-16 55 -4 31 -8 36 -14 22z"/>
<path d="M10247 9457 c-2 -12 -8 -29 -11 -38 -6 -14 -2 -16 34 -9 53 10 53 10
15 42 l-33 28 -5 -23z"/>
<path d="M10950 9303 c-45 -80 -150 -185 -315 -318 -146 -117 -247 -216 -320
-316 -37 -51 -47 -75 -69 -172 -113 -491 -169 -1142 -121 -1411 18 -101 13
-124 -9 -45 -56 197 -43 599 34 1079 44 271 83 457 106 508 23 52 21 92 -5 92
-5 0 -40 29 -79 65 -77 71 -81 73 -105 47 -34 -38 -169 -813 -209 -1197 -19
-189 -15 -625 7 -641 37 -27 420 -40 622 -21 l81 7 11 -48 c44 -209 185 -434
259 -417 68 14 342 239 342 279 0 6 -24 -13 -52 -41 -70 -66 -191 -157 -252
-188 -58 -29 -71 -25 -121 43 -144 196 -197 408 -226 905 -24 408 24 771 151
1129 l40 113 -54 53 c-62 60 -59 60 -161 -7 -94 -62 -98 -62 -41 -3 60 62 123
98 157 89 13 -3 62 -45 108 -92 46 -47 88 -85 92 -85 22 0 229 460 229 507 0
18 -56 143 -64 143 -2 0 -19 -26 -36 -57z m-580 -738 c10 -12 10 -21 2 -40
-14 -31 -56 -34 -72 -5 -24 44 38 83 70 45z m-80 -440 c26 -32 -13 -81 -47
-59 -24 15 -27 38 -8 58 20 20 39 20 55 1z m-40 -445 c8 -14 8 -26 0 -40 -19
-35 -80 -20 -80 20 0 40 61 55 80 20z m-10 -435 c0 -14 -8 -29 -19 -35 -25
-13 -27 -13 -45 6 -21 20 -20 30 4 54 26 26 60 12 60 -25z"/>
<path d="M1765 9213 c-172 -4 -162 1 -169 -85 -8 -93 -67 -814 -106 -1293 -17
-203 -46 -570 -65 -815 -39 -503 -88 -1087 -110 -1325 -9 -88 -31 -326 -50
-530 -35 -377 -69 -710 -130 -1280 -18 -176 -35 -338 -37 -359 l-3 -39 375 3
c206 1 393 3 415 5 22 2 234 -1 470 -6 1324 -26 2083 -150 2619 -427 l93 -47
6 1019 c12 1731 9 3590 -5 3604 -9 9 -9 12 0 12 9 0 12 33 12 120 l0 120 -67
34 c-128 64 -493 206 -530 206 -11 0 -1 -261 10 -264 128 -32 566 -200 554
-212 -2 -2 -57 19 -123 47 -65 28 -191 75 -279 105 l-160 54 -6 -58 c-4 -31
-7 -87 -8 -123 l-1 -65 75 -24 c41 -13 73 -25 71 -28 -3 -2 -35 6 -71 18 -36
12 -68 20 -69 19 -11 -13 -13 -509 -3 -509 9 0 9 -2 1 -8 -8 -5 -14 -122 -18
-387 -3 -209 -8 -468 -11 -575 -5 -218 -12 -579 -20 -1080 -3 -184 -7 -418
-10 -520 -2 -102 -8 -391 -11 -642 -4 -293 -10 -458 -17 -458 -9 0 -6 423 8
970 3 102 7 349 10 550 3 201 12 703 20 1115 22 1163 29 1549 29 1685 l1 125
-85 22 c-47 13 -172 42 -279 65 -107 24 -187 44 -179 46 16 3 338 -67 451 -98
105 -29 97 -38 97 109 l0 129 -112 31 c-62 17 -187 48 -278 70 l-165 38 -6
-26 c-4 -14 -12 -192 -18 -396 -11 -364 -25 -738 -36 -1007 -6 -126 -5 -137
12 -141 16 -4 16 -5 1 -6 -15 -1 -18 -12 -19 -78 -1 -43 -2 -107 -4 -143 -2
-36 -6 -146 -9 -245 -3 -99 -15 -441 -26 -760 -19 -558 -23 -684 -35 -1100 -3
-104 -10 -298 -15 -430 -6 -132 -10 -273 -10 -312 0 -47 -4 -73 -11 -73 -11 0
-8 203 6 525 3 61 12 326 20 590 8 264 17 543 20 620 3 77 7 221 10 320 3 99
8 227 10 285 2 58 7 184 10 280 3 96 14 425 25 730 11 305 22 641 25 745 3
105 8 224 11 267 l6 76 -54 11 c-182 36 -572 101 -609 101 -13 0 -18 -45 -33
-337 -10 -186 -19 -363 -21 -393 -7 -88 -24 -395 -30 -520 -12 -250 -15 -306
-29 -610 -9 -173 -18 -358 -21 -410 -5 -92 -29 -584 -40 -820 -12 -260 -16
-339 -30 -635 -8 -170 -17 -364 -20 -430 -9 -210 -17 -295 -27 -295 -7 0 -8
26 -4 73 3 39 8 142 11 227 3 85 8 191 10 235 3 44 14 274 25 510 11 237 22
473 25 525 3 52 12 237 20 410 8 173 17 360 20 415 3 55 7 145 10 200 14 304
25 529 30 595 3 41 7 125 10 185 3 61 9 182 15 270 5 88 12 212 15 275 3 63
10 187 15 275 6 88 10 183 10 211 l0 51 -87 12 c-201 26 -565 62 -570 57 -6
-5 -11 -84 -58 -796 -14 -217 -27 -417 -30 -445 -18 -215 -18 -273 1 -278 16
-4 16 -5 2 -6 -22 -1 -25 -20 -38 -251 -6 -102 -13 -219 -15 -260 -5 -79 -31
-481 -40 -635 -3 -49 -8 -119 -10 -155 -6 -77 -30 -482 -45 -735 -6 -99 -15
-252 -20 -340 -12 -191 -17 -269 -26 -437 -4 -71 -11 -128 -15 -128 -12 0 -11
44 5 305 7 121 14 227 14 235 0 8 4 74 8 147 l7 131 -24 5 c-24 4 -24 4 2 6
l26 1 12 218 c21 375 58 968 66 1059 5 53 3 62 -12 66 -15 4 -15 5 -2 6 19 1
18 -9 44 416 8 132 17 276 20 320 3 44 14 211 25 370 10 160 22 335 25 390 3
55 17 255 30 445 13 190 21 348 17 352 -4 4 -29 9 -57 11 -49 4 -48 4 7 3 l56
-1 7 105 c3 58 8 117 11 132 5 25 3 27 -48 32 -44 6 -553 36 -597 36 -8 0 -11
3 -7 8 10 9 144 5 425 -14 123 -8 225 -14 226 -12 2 2 5 39 6 83 l4 80 -120 7
c-66 5 -212 11 -324 15 l-205 8 3 60 c1 33 3 61 4 62 1 0 108 -3 237 -8 1221
-46 2232 -244 2844 -557 l149 -76 -7 -2582 -6 -2582 52 -32 c29 -18 90 -59
135 -91 44 -33 84 -59 87 -59 3 0 6 1212 6 2693 l0 2692 -37 65 c-52 89 -244
280 -353 351 -345 225 -786 376 -1395 478 -550 92 -1152 130 -1820 114z m323
-839 c43 -6 52 -10 52 -27 0 -19 -4 -20 -97 -14 -54 4 -117 7 -140 7 -36 0
-43 3 -43 20 0 18 7 20 88 20 48 0 111 -3 140 -6z m-221 -130 c-3 -3 -12 -4
-19 -1 -8 3 -5 6 6 6 11 1 17 -2 13 -5z m151 -11 c-21 -2 -57 -2 -80 0 -24 2
-7 4 37 4 44 0 63 -2 43 -4z m160 -10 c-16 -2 -40 -2 -55 0 -16 2 -3 4 27 4
30 0 43 -2 28 -4z m135 -10 c-13 -2 -33 -2 -45 0 -13 2 -3 4 22 4 25 0 35 -2
23 -4z m-276 -73 c58 0 75 -3 80 -16 11 -29 -11 -32 -145 -25 -140 8 -148 10
-138 37 5 14 16 16 68 10 33 -3 94 -6 135 -6z m2154 -60 c22 -12 25 -33 5 -49
-28 -23 -68 17 -45 45 14 17 15 17 40 4z m-1356 -48 c10 -26 -19 -46 -52 -35
-29 10 -43 40 -24 53 19 11 69 -1 76 -18z m113 2 c36 -10 26 -48 -14 -52 -38
-4 -63 20 -44 43 14 16 23 18 58 9z m-910 -61 c-16 -2 -40 -2 -55 0 -16 2 -3
4 27 4 30 0 43 -2 28 -4z m170 -10 c-10 -2 -28 -2 -40 0 -13 2 -5 4 17 4 22 1
32 -1 23 -4z m1299 -20 c10 -25 -19 -44 -52 -35 -31 9 -46 39 -26 52 18 10 72
-1 78 -17z m-1184 10 c-7 -2 -21 -2 -30 0 -10 3 -4 5 12 5 17 0 24 -2 18 -5z
m130 -10 c-7 -2 -21 -2 -30 0 -10 3 -4 5 12 5 17 0 24 -2 18 -5z m1185 -30 c4
-24 -14 -33 -52 -26 -32 6 -43 27 -27 47 17 21 75 6 79 -21z m-1070 20 c-10
-2 -28 -2 -40 0 -13 2 -5 4 17 4 22 1 32 -1 23 -4z m2193 -11 c26 -22 20 -52
-10 -52 -37 0 -68 51 -38 63 20 9 24 8 48 -11z m-2083 1 c-10 -2 -28 -2 -40 0
-13 2 -5 4 17 4 22 1 32 -1 23 -4z m-630 -19 c43 -5 53 -9 50 -22 -3 -15 -19
-17 -138 -13 -150 4 -150 4 -143 29 5 19 85 21 231 6z m730 9 c-10 -2 -28 -2
-40 0 -13 2 -5 4 17 4 22 1 32 -1 23 -4z m80 -10 c-10 -2 -26 -2 -35 0 -10 3
-2 5 17 5 19 0 27 -2 18 -5z m90 -10 c-10 -2 -28 -2 -40 0 -13 2 -5 4 17 4 22
1 32 -1 23 -4z m70 -10 c-10 -2 -26 -2 -35 0 -10 3 -2 5 17 5 19 0 27 -2 18
-5z m1863 -14 c37 -37 2 -66 -40 -32 -15 12 -20 24 -16 36 9 23 30 22 56 -4z
m-1788 4 c-7 -2 -21 -2 -30 0 -10 3 -4 5 12 5 17 0 24 -2 18 -5z m150 -20 c-7
-2 -19 -2 -25 0 -7 3 -2 5 12 5 14 0 19 -2 13 -5z m112 -12 c34 -7 35 -9 10
-9 -16 0 -43 4 -60 8 -42 11 -1 11 50 1z m88 -18 c-7 -2 -21 -2 -30 0 -10 3
-4 5 12 5 17 0 24 -2 18 -5z m60 -10 c-7 -2 -21 -2 -30 0 -10 3 -4 5 12 5 17
0 24 -2 18 -5z m687 -8 c18 -21 5 -47 -22 -43 -31 4 -40 58 -10 58 11 0 25 -7
32 -15z m-633 -1 c-3 -3 -12 -4 -19 -1 -8 3 -5 6 6 6 11 1 17 -2 13 -5z m-744
-21 c10 -6 9 -41 -2 -47 -15 -10 -72 6 -78 21 -13 33 37 50 80 26z m800 10
c-7 -2 -19 -2 -25 0 -7 3 -2 5 12 5 14 0 19 -2 13 -5z m60 -10 c-7 -2 -19 -2
-25 0 -7 3 -2 5 12 5 14 0 19 -2 13 -5z m-723 -18 c19 -22 4 -45 -28 -45 -33
0 -57 22 -48 45 7 19 60 20 76 0z m773 8 c-7 -2 -19 -2 -25 0 -7 3 -2 5 12 5
14 0 19 -2 13 -5z m54 -9 c-3 -3 -12 -4 -19 -1 -8 3 -5 6 6 6 11 1 17 -2 13
-5z m156 -31 c-7 -2 -19 -2 -25 0 -7 3 -2 5 12 5 14 0 19 -2 13 -5z m44 -9
c-3 -3 -12 -4 -19 -1 -8 3 -5 6 6 6 11 1 17 -2 13 -5z m-1844 -11 c-7 -2 -19
-2 -25 0 -7 3 -2 5 12 5 14 0 19 -2 13 -5z m1894 1 c-3 -3 -12 -4 -19 -1 -8 3
-5 6 6 6 11 1 17 -2 13 -5z m-543 -19 c31 -31 -9 -58 -58 -39 -16 6 -22 35 -9
47 12 12 51 7 67 -8z m593 9 c-3 -3 -12 -4 -19 -1 -8 3 -5 6 6 6 11 1 17 -2
13 -5z m-1690 -10 c-3 -3 -12 -4 -19 -1 -8 3 -5 6 6 6 11 1 17 -2 13 -5z
m1763 -4 c20 -6 21 -8 5 -8 -11 0 -31 4 -45 8 -20 6 -21 8 -5 8 11 0 31 -4 45
-8z m-528 -23 c18 -28 -11 -44 -58 -33 -23 6 -33 34 -17 50 11 11 65 -2 75
-17z m585 7 c-3 -3 -12 -4 -19 -1 -8 3 -5 6 6 6 11 1 17 -2 13 -5z m537 -4
c30 -11 38 -60 10 -60 -39 0 -70 41 -47 63 8 9 7 9 37 -3z m-2671 -19 c6 -6 7
-16 5 -23 -5 -11 -31 -12 -134 -5 -150 10 -156 11 -147 33 6 15 20 16 137 10
72 -3 134 -10 139 -15z m620 12 c-7 -2 -19 -2 -25 0 -7 3 -2 5 12 5 14 0 19
-2 13 -5z m1560 0 c-7 -2 -19 -2 -25 0 -7 3 -2 5 12 5 14 0 19 -2 13 -5z
m-1460 -10 c-7 -2 -21 -2 -30 0 -10 3 -4 5 12 5 17 0 24 -2 18 -5z m1504 1
c-3 -3 -12 -4 -19 -1 -8 3 -5 6 6 6 11 1 17 -2 13 -5z m40 -10 c-3 -3 -12 -4
-19 -1 -8 3 -5 6 6 6 11 1 17 -2 13 -5z m40 -10 c-3 -3 -12 -4 -19 -1 -8 3 -5
6 6 6 11 1 17 -2 13 -5z m504 -25 c15 -15 18 -24 9 -34 -21 -25 -78 9 -66 40
8 21 32 19 57 -6z m-1384 -55 c-3 -3 -12 -4 -19 -1 -8 3 -5 6 6 6 11 1 17 -2
13 -5z m691 -18 c5 -25 -12 -39 -37 -31 -35 11 -29 57 6 53 18 -2 29 -10 31
-22z m-1400 -5 c24 -15 10 -46 -23 -49 -35 -4 -62 23 -44 45 13 15 47 17 67 4z
m1976 -12 c31 -12 55 -23 53 -25 -4 -5 -127 36 -127 42 0 8 19 4 74 -17z
m-1827 -15 c9 -24 -14 -41 -48 -36 -34 5 -47 25 -30 45 13 17 71 10 78 -9z
m1963 -41 l25 -14 -25 7 c-14 4 -36 13 -50 21 l-25 14 25 -7 c14 -4 36 -13 50
-21z m-963 11 c-3 -3 -12 -4 -19 -1 -8 3 -5 6 6 6 11 1 17 -2 13 -5z m40 -10
c-3 -3 -12 -4 -19 -1 -8 3 -5 6 6 6 11 1 17 -2 13 -5z m-502 -44 c0 -21 -4
-25 -28 -23 -40 3 -59 20 -47 43 15 28 75 12 75 -20z m602 24 c-3 -3 -12 -4
-19 -1 -8 3 -5 6 6 6 11 1 17 -2 13 -5z m883 -4 c8 -5 11 -10 5 -10 -5 0 -17
5 -25 10 -8 5 -10 10 -5 10 6 0 17 -5 25 -10z m-833 -6 c-3 -3 -12 -4 -19 -1
-8 3 -5 6 6 6 11 1 17 -2 13 -5z m-2109 -20 c43 -5 48 -10 34 -31 -6 -9 -41
-11 -140 -6 -131 6 -132 6 -132 30 l0 24 98 -6 c53 -3 116 -8 140 -11z m1590
-12 c2 -13 -3 -25 -13 -28 -25 -10 -65 13 -65 36 0 32 74 25 78 -8z m559 22
c-3 -3 -12 -4 -19 -1 -8 3 -5 6 6 6 11 1 17 -2 13 -5z m853 -9 c14 -8 21 -14
15 -14 -5 0 -21 6 -35 14 -14 8 -20 14 -15 14 6 0 21 -6 35 -14z m-266 -8 c22
-16 18 -50 -6 -55 -9 -2 -26 6 -37 17 -37 37 0 69 43 38z m-497 -3 c-3 -3 -12
-4 -19 -1 -8 3 -5 6 6 6 11 1 17 -2 13 -5z m631 -73 c3 -16 -2 -21 -20 -21
-28 0 -48 17 -48 41 0 39 62 21 68 -20z m-343 -1 c13 -5 14 -9 5 -9 -8 0 -24
4 -35 9 -13 5 -14 9 -5 9 8 0 24 -4 35 -9z m-367 -58 c4 -28 -24 -40 -45 -19
-21 21 -9 49 19 45 15 -2 24 -11 26 -26z m-1396 -5 c13 -20 -5 -37 -38 -37
-36 0 -51 17 -40 45 6 16 66 10 78 -8z m133 -27 c0 -31 -43 -40 -68 -15 -26
25 -10 47 32 43 31 -3 36 -6 36 -28z m540 -54 c26 -19 13 -46 -23 -46 -33 0
-57 22 -48 45 7 19 46 20 71 1z m1475 4 c8 -5 11 -10 5 -10 -5 0 -17 5 -25 10
-8 5 -10 10 -5 10 6 0 17 -5 25 -10z m-2557 -7 c-7 -2 -19 -2 -25 0 -7 3 -2 5
12 5 14 0 19 -2 13 -5z m1201 -13 c27 -10 37 -49 14 -51 -50 -5 -88 22 -67 48
14 16 20 16 53 3z m1426 -10 c19 -11 31 -19 25 -19 -5 0 -26 8 -45 19 -19 11
-30 19 -25 19 6 0 26 -8 45 -19z m-3062 4 c88 -7 92 -8 92 -31 0 -21 -3 -23
-37 -19 -21 3 -80 8 -132 11 -104 7 -113 9 -104 30 6 17 40 19 181 9z m2816
-17 c22 -16 18 -50 -6 -55 -9 -2 -26 6 -37 17 -37 37 0 69 43 38z m114 -43
c23 -16 29 -48 12 -59 -16 -10 -60 23 -60 44 0 34 15 38 48 15z m-699 -78 c15
-18 3 -46 -20 -46 -20 0 -44 35 -34 50 9 14 41 12 54 -4z m-1411 -5 c25 -15 9
-46 -24 -49 -34 -3 -58 17 -48 42 7 17 50 22 72 7z m147 -41 c0 -22 -4 -25
-35 -22 -41 3 -55 14 -46 37 11 29 81 16 81 -15z m1995 -40 c8 -5 11 -10 5
-10 -5 0 -17 5 -25 10 -8 5 -10 10 -5 10 6 0 17 -5 25 -10z m-1450 -15 c15
-18 -2 -45 -29 -45 -27 0 -55 25 -48 44 8 20 60 21 77 1z m-1447 -22 c4 -2 7
-13 7 -23 0 -19 -6 -20 -107 -14 -166 8 -197 17 -166 48 8 7 251 -3 266 -11z
m1572 3 c24 -18 13 -46 -19 -46 -30 0 -57 25 -50 45 8 19 44 19 69 1z m1166
-16 c23 -13 26 -60 3 -60 -26 0 -54 20 -54 39 0 32 17 39 51 21z m279 0 c8 -5
11 -10 5 -10 -5 0 -17 5 -25 10 -8 5 -10 10 -5 10 6 0 17 -5 25 -10z m-146
-56 c19 -18 20 -26 5 -41 -23 -23 -81 20 -64 47 9 15 42 12 59 -6z m-2122 -77
c13 -20 -4 -37 -38 -37 -36 0 -51 17 -40 46 7 17 65 11 78 -9z m1413 -7 c0
-30 -33 -40 -51 -15 -19 25 -6 47 25 43 20 -2 26 -8 26 -28z m-1280 -20 c0
-22 -4 -25 -34 -23 -36 1 -53 17 -44 40 4 9 18 13 42 11 31 -3 36 -6 36 -28z
m-1002 -17 c-7 -2 -21 -2 -30 0 -10 3 -4 5 12 5 17 0 24 -2 18 -5z m125 -10
c-10 -2 -26 -2 -35 0 -10 3 -2 5 17 5 19 0 27 -2 18 -5z m1909 -9 c-3 -3 -12
-4 -19 -1 -8 3 -5 6 6 6 11 1 17 -2 13 -5z m-484 -21 c9 -5 9 -40 -1 -46 -13
-9 -64 5 -69 19 -14 37 25 52 70 27z m534 11 c-3 -3 -12 -4 -19 -1 -8 3 -5 6
6 6 11 1 17 -2 13 -5z m-1619 -11 c-10 -2 -26 -2 -35 0 -10 3 -2 5 17 5 19 0
27 -2 18 -5z m1665 0 c-7 -2 -19 -2 -25 0 -7 3 -2 5 12 5 14 0 19 -2 13 -5z
m-439 -36 c16 -25 -5 -41 -44 -32 -35 8 -48 28 -31 49 15 17 60 7 75 -17z
m-1691 16 c105 -6 107 -6 107 -31 0 -24 -1 -24 -62 -18 -35 3 -98 8 -140 12
-67 5 -78 9 -78 25 0 22 9 23 173 12z m740 -10 c-7 -2 -19 -2 -25 0 -7 3 -2 5
12 5 14 0 19 -2 13 -5z m2115 -19 c41 -28 17 -68 -27 -44 -20 10 -28 40 -14
53 9 10 16 9 41 -9z m126 -47 c19 -14 19 -48 0 -54 -19 -6 -58 32 -51 50 8 20
27 22 51 4z m-1467 -43 c-3 -3 -12 -4 -19 -1 -8 3 -5 6 6 6 11 1 17 -2 13 -5z
m56 -11 c-7 -2 -19 -2 -25 0 -7 3 -2 5 12 5 14 0 19 -2 13 -5z m-718 -33 c0
-30 -38 -39 -69 -17 -32 23 -14 49 31 45 33 -3 38 -6 38 -28z m1423 -2 c3 -24
0 -28 -23 -28 -27 0 -41 20 -31 46 10 27 51 13 54 -18z m-1281 -5 c10 -25 -19
-44 -52 -35 -31 9 -46 39 -26 52 18 10 72 -1 78 -17z m1823 7 c18 -12 2 -12
-25 0 -13 6 -15 9 -5 9 8 0 22 -4 30 -9z m-2952 -27 c-10 -2 -26 -2 -35 0 -10
3 -2 5 17 5 19 0 27 -2 18 -5z m269 -19 c-3 -3 -12 -4 -19 -1 -8 3 -5 6 6 6
11 1 17 -2 13 -5z m131 -11 c-10 -2 -26 -2 -35 0 -10 3 -2 5 17 5 19 0 27 -2
18 -5z m100 -10 c-10 -2 -26 -2 -35 0 -10 3 -2 5 17 5 19 0 27 -2 18 -5z
m1156 -3 c41 -15 35 -50 -9 -50 -39 0 -63 28 -43 48 15 15 20 15 52 2z m-961
-17 c-7 -2 -19 -2 -25 0 -7 3 -2 5 12 5 14 0 19 -2 13 -5z m1118 -20 c20 -23
-9 -45 -46 -35 -31 9 -46 39 -25 52 16 10 57 1 71 -17z m486 21 c-3 -3 -12 -4
-19 -1 -8 3 -5 6 6 6 11 1 17 -2 13 -5z m-2084 -21 c4 -2 7 -13 7 -24 0 -19
-5 -20 -62 -15 -35 3 -98 8 -140 12 -69 5 -78 8 -78 26 0 19 4 20 133 13 72
-4 135 -9 140 -12z m570 10 c-7 -2 -19 -2 -25 0 -7 3 -2 5 12 5 14 0 19 -2 13
-5z m94 -9 c-3 -3 -12 -4 -19 -1 -8 3 -5 6 6 6 11 1 17 -2 13 -5z m1510 0 c-3
-3 -12 -4 -19 -1 -8 3 -5 6 6 6 11 1 17 -2 13 -5z m-1419 -11 c-10 -2 -26 -2
-35 0 -10 3 -2 5 17 5 19 0 27 -2 18 -5z m1459 1 c-3 -3 -12 -4 -19 -1 -8 3
-5 6 6 6 11 1 17 -2 13 -5z m-1374 -11 c-7 -2 -21 -2 -30 0 -10 3 -4 5 12 5
17 0 24 -2 18 -5z m1942 -7 c22 -16 14 -46 -14 -46 -19 0 -51 24 -51 39 0 24
37 28 65 7z m-1872 -3 c-7 -2 -19 -2 -25 0 -7 3 -2 5 12 5 14 0 19 -2 13 -5z
m1981 -33 c28 -10 36 -47 12 -56 -33 -13 -73 36 -49 59 8 9 7 9 37 -3z m-2132
-74 c14 -20 2 -31 -35 -34 -39 -3 -55 13 -43 43 6 17 66 10 78 -9z m1429 -8
c9 -18 8 -24 -6 -34 -21 -16 -42 -8 -50 17 -13 41 35 56 56 17z m-1297 -3 c31
-31 -9 -58 -58 -39 -16 6 -22 35 -9 47 12 12 51 7 67 -8z m-1071 -32 c-7 -2
-21 -2 -30 0 -10 3 -4 5 12 5 17 0 24 -2 18 -5z m110 -10 c-7 -2 -19 -2 -25 0
-7 3 -2 5 12 5 14 0 19 -2 13 -5z m2014 -19 c-3 -3 -12 -4 -19 -1 -8 3 -5 6 6
6 11 1 17 -2 13 -5z m-1644 -11 c-7 -2 -21 -2 -30 0 -10 3 -4 5 12 5 17 0 24
-2 18 -5z m1142 -7 c26 -19 13 -46 -23 -46 -33 0 -57 22 -48 45 7 19 46 20 71
1z m542 8 c-3 -3 -12 -4 -19 -1 -8 3 -5 6 6 6 11 1 17 -2 13 -5z m-395 -38
c19 -28 -6 -46 -49 -34 -32 8 -44 34 -26 52 10 9 66 -4 75 -18z m-1619 -2 c9
-3 17 -14 17 -26 0 -19 -4 -19 -77 -14 -205 17 -203 16 -203 38 0 20 4 20 123
13 67 -3 130 -9 140 -11z m2798 -24 c20 -11 26 -45 10 -55 -15 -9 -61 17 -61
35 0 31 18 37 51 20z m140 -56 c14 -17 5 -44 -15 -44 -28 0 -62 36 -48 53 14
17 45 12 63 -9z m-1664 0 c-3 -3 -12 -4 -19 -1 -8 3 -5 6 6 6 11 1 17 -2 13
-5z m-503 -54 c16 -16 -3 -40 -32 -40 -38 0 -60 24 -41 46 13 15 54 12 73 -6z
m1436 -5 c16 -19 6 -45 -18 -45 -25 0 -46 25 -38 45 7 19 40 19 56 0z m-1300
-10 c19 -22 4 -45 -28 -45 -33 0 -57 22 -48 45 7 19 60 20 76 0z m564 -85 c16
-16 -2 -40 -32 -40 -34 0 -57 22 -48 46 7 17 60 14 80 -6z m593 4 c-3 -3 -12
-4 -19 -1 -8 3 -5 6 6 6 11 1 17 -2 13 -5z m-1574 -11 c-7 -2 -21 -2 -30 0
-10 3 -4 5 12 5 17 0 24 -2 18 -5z m1117 -19 c22 -21 -6 -44 -43 -37 -31 6
-43 24 -33 48 7 18 52 11 76 -11z m-1622 -10 c6 -2 12 -13 12 -25 0 -20 -3
-21 -107 -15 -166 10 -197 19 -166 49 6 7 236 -1 261 -9z m2813 -14 c20 -11
26 -45 10 -54 -17 -11 -61 13 -61 32 0 33 17 40 51 22z m143 -66 c10 -25 -5
-45 -28 -38 -43 13 -58 38 -35 61 14 14 55 -2 63 -23z m-2182 -48 c14 -20 2
-31 -35 -34 -39 -3 -55 13 -43 44 7 18 65 11 78 -10z m1446 -14 c4 -27 -22
-40 -43 -22 -8 7 -15 21 -15 32 0 30 54 21 58 -10z m-1313 -12 c0 -31 -43 -40
-69 -14 -23 23 -3 46 38 42 26 -2 31 -7 31 -28z m560 -64 c26 -19 13 -46 -23
-46 -33 0 -57 22 -48 45 7 19 46 20 71 1z m143 -34 c18 -23 -4 -42 -41 -35
-31 6 -43 24 -33 49 8 20 55 11 74 -14z m-1690 -28 c64 -5 72 -8 72 -26 0 -20
-4 -21 -92 -14 -50 3 -113 6 -140 6 -40 0 -48 3 -48 18 0 31 5 32 208 16z
m2892 -2 c22 -18 19 -52 -5 -52 -24 0 -57 34 -50 53 9 22 27 22 55 -1z m124
-45 c19 -14 19 -48 0 -54 -19 -6 -58 32 -51 50 8 20 27 22 51 4z m-2177 -63
c9 -24 -14 -41 -48 -36 -34 5 -47 25 -30 45 13 17 71 10 78 -9z m1451 -12 c4
-28 -24 -40 -45 -19 -21 21 -9 49 19 45 15 -2 24 -11 26 -26z m-1318 3 c19
-22 4 -45 -28 -45 -33 0 -57 22 -48 45 7 19 60 20 76 0z m554 -75 c28 -10 34
-31 14 -47 -20 -16 -78 4 -78 26 0 32 19 39 64 21z m156 -36 c22 -21 -8 -47
-44 -38 -30 7 -42 25 -32 49 7 18 52 11 76 -11z m1218 -63 c3 -16 -2 -21 -20
-21 -28 0 -48 17 -48 41 0 39 62 21 68 -20z m-2851 14 c7 -2 10 -12 6 -21 -5
-14 -21 -15 -137 -9 -132 7 -153 12 -144 37 5 13 237 7 275 -7z m2961 -31 c41
-28 17 -68 -27 -44 -20 10 -28 40 -14 53 9 10 16 9 41 -9z m-2193 -74 c0 -21
-5 -26 -33 -28 -34 -3 -50 14 -38 44 11 28 71 14 71 -16z m1465 15 c16 -19 6
-45 -18 -45 -25 0 -46 25 -38 45 7 19 40 19 56 0z m-1325 -35 c0 -22 -4 -25
-30 -22 -64 7 -71 55 -6 50 31 -3 36 -6 36 -28z m574 -64 c18 -21 2 -46 -29
-46 -32 0 -55 23 -46 45 7 19 60 20 75 1z m135 -21 c31 -31 -9 -58 -58 -39
-16 6 -22 35 -9 47 12 12 51 7 67 -8z m1217 -35 c20 -11 26 -45 10 -54 -20
-13 -61 13 -61 39 0 27 18 32 51 15z m-2883 -26 c24 -4 32 -10 32 -25 0 -19
-5 -20 -132 -13 -136 7 -155 12 -145 37 6 15 151 15 245 1z m3013 -24 c20 -11
24 -27 10 -48 -10 -16 -57 2 -65 25 -12 31 17 43 55 23z m-737 -62 c16 -26
-16 -57 -38 -38 -17 13 -21 42 -9 54 11 11 35 3 47 -16z m-1480 -1 c25 -18 11
-47 -24 -47 -32 0 -55 23 -46 45 7 18 46 20 70 2z m150 -23 c10 -25 -12 -45
-43 -38 -34 9 -45 19 -38 38 9 22 73 22 81 0z m573 -76 c21 -17 -3 -50 -30
-42 -32 9 -51 30 -43 49 7 18 48 14 73 -7z m141 -36 c4 -27 -16 -36 -51 -23
-28 11 -37 46 -14 54 25 8 62 -9 65 -31z m1236 -35 c15 -23 -6 -41 -37 -33
-29 7 -42 33 -26 52 13 15 48 5 63 -19z m-2941 -17 c53 0 57 -2 57 -23 0 -22
-3 -22 -77 -20 -168 7 -203 13 -203 35 0 20 4 21 83 15 45 -4 108 -7 140 -7z
m3047 -10 c16 0 33 -41 22 -52 -16 -16 -60 -1 -67 22 -8 25 3 43 22 36 8 -3
19 -6 23 -6z m-746 -53 c23 -17 17 -52 -8 -52 -23 0 -41 27 -33 49 8 19 17 20
41 3z m-1490 -17 c42 -15 35 -50 -9 -50 -37 0 -52 17 -41 45 6 18 15 19 50 5z
m161 -40 c0 -22 -4 -25 -34 -23 -36 1 -53 17 -44 40 4 9 18 13 42 11 31 -3 36
-6 36 -28z m-1172 -47 c-7 -2 -19 -2 -25 0 -7 3 -2 5 12 5 14 0 19 -2 13 -5z
m1751 -6 c25 -18 11 -47 -24 -47 -32 0 -55 23 -46 45 7 18 46 20 70 2z m124
-13 c33 -9 31 -54 -2 -54 -37 0 -56 10 -56 29 0 30 14 36 58 25z m1243 -44
c11 -6 19 -21 19 -36 0 -23 -3 -25 -27 -19 -28 7 -43 21 -43 41 0 24 20 30 51
14z m-2878 -57 c4 -3 7 -12 5 -21 -3 -17 -38 -18 -205 -6 -74 6 -83 9 -83 26
0 19 5 20 138 13 75 -4 141 -9 145 -12z m3017 -3 c20 -20 17 -50 -5 -50 -24 0
-59 36 -52 53 9 23 33 21 57 -3z m-1663 -16 c-3 -3 -12 -4 -19 -1 -8 3 -5 6 6
6 11 1 17 -2 13 -5z m917 -36 c14 -22 -12 -52 -37 -42 -19 7 -31 39 -22 54 10
16 46 8 59 -12z m-1494 -23 c19 -23 -5 -47 -39 -39 -34 9 -45 19 -38 38 8 20
60 21 77 1z m140 -10 c19 -22 4 -45 -28 -45 -33 0 -57 22 -48 45 7 19 60 20
76 0z m584 -68 c25 -18 11 -47 -24 -47 -32 0 -55 23 -46 45 7 18 46 20 70 2z
m-1601 -14 c-13 -2 -33 -2 -45 0 -13 2 -3 4 22 4 25 0 35 -2 23 -4z m1725 1
c25 -7 30 -41 7 -50 -26 -10 -65 5 -65 25 0 31 14 36 58 25z m-1510 -11 c-10
-2 -26 -2 -35 0 -10 3 -2 5 17 5 19 0 27 -2 18 -5z m2763 -33 c22 -12 25 -48
5 -56 -24 -9 -56 15 -56 41 0 27 18 32 51 15z m130 -50 c22 -12 25 -48 5 -56
-24 -9 -56 15 -56 41 0 27 18 32 51 15z m-3089 -10 c65 0 69 -1 66 -21 -3 -21
-8 -22 -103 -20 -148 2 -185 9 -185 34 0 19 4 20 77 13 42 -3 107 -6 145 -6z
m2338 -45 c16 -20 6 -45 -19 -45 -22 0 -41 27 -34 48 6 17 38 15 53 -3z
m-1502 -25 c8 0 12 -9 10 -22 -4 -30 -56 -38 -75 -12 -17 23 2 48 31 40 12 -3
27 -6 34 -6z m156 -27 c10 -26 -14 -44 -49 -35 -50 14 -47 52 3 52 28 0 42 -5
46 -17z m570 -49 c9 -3 16 -17 16 -30 0 -21 -5 -24 -35 -24 -37 0 -52 17 -41
45 6 16 33 20 60 9z m149 -31 c4 -2 7 -13 7 -24 0 -24 -67 -28 -76 -4 -15 38
23 53 69 28z m-1556 -9 c-3 -3 -12 -4 -19 -1 -8 3 -5 6 6 6 11 1 17 -2 13 -5z
m380 -20 c-3 -3 -12 -4 -19 -1 -8 3 -5 6 6 6 11 1 17 -2 13 -5z m2427 -7 c26
-19 17 -53 -14 -49 -29 3 -51 28 -43 48 7 18 34 18 57 1z m-2161 -14 c-7 -2
-19 -2 -25 0 -7 3 -2 5 12 5 14 0 19 -2 13 -5z m2292 -39 c23 -24 15 -50 -15
-46 -32 3 -54 26 -47 46 8 21 41 20 62 0z m-3112 -21 c56 -5 67 -9 67 -24 0
-22 -37 -24 -198 -13 -81 6 -92 9 -92 25 0 21 84 26 223 12z m2357 -44 c0 -25
-25 -35 -45 -19 -18 15 -20 47 -2 53 20 7 47 -12 47 -34z m-1511 -23 c16 -19
3 -46 -23 -46 -32 0 -61 24 -53 44 8 20 60 22 76 2z m139 -5 c8 -5 12 -17 10
-27 -4 -25 -59 -31 -78 -10 -25 31 30 61 68 37z m602 -76 c19 -23 -6 -48 -39
-40 -34 8 -45 20 -38 39 8 20 60 21 77 1z m138 -33 c4 -27 -16 -36 -51 -23
-47 18 -27 65 21 52 17 -5 28 -15 30 -29z m1256 -18 c18 -17 19 -24 8 -42 -10
-14 -55 -2 -67 18 -21 34 29 54 59 24z m130 -50 c19 -19 20 -28 4 -42 -14 -11
-52 0 -63 18 -21 34 29 54 59 24z m-760 -53 c11 -17 -6 -42 -27 -39 -29 4 -44
32 -28 52 13 16 42 9 55 -13z m624 -163 c15 -15 16 -45 2 -53 -17 -10 -60 23
-60 45 0 23 38 28 58 8z m123 -48 c20 -11 26 -45 9 -55 -17 -10 -60 23 -60 45
0 22 20 26 51 10z"/>
<path d="M8675 9196 c-72 -18 -123 -47 -178 -102 -82 -83 -140 -234 -89 -234
9 0 26 -3 38 -6 19 -5 22 0 28 47 29 220 265 326 516 232 12 -4 12 -2 -1 12
-50 52 -207 78 -314 51z"/>
<path d="M1502 9085 l-42 -56 -20 -252 c-35 -430 -171 -2000 -235 -2707 -63
-690 -222 -2308 -255 -2600 -5 -47 -10 -89 -10 -95 0 -5 24 15 54 44 52 51 54
56 60 120 4 36 20 190 36 341 87 818 159 1558 220 2280 37 432 57 689 135
1665 14 176 41 509 60 740 48 579 48 575 44 575 -2 0 -23 -25 -47 -55z"/>
<path d="M9117 9063 c70 -69 84 -87 98 -136 9 -31 36 -86 60 -122 54 -80 74
-138 57 -166 -10 -16 -1 -35 68 -140 44 -66 80 -125 80 -129 0 -5 17 -12 38
-16 20 -3 52 -15 70 -25 l33 -19 -6 22 c-4 13 -13 32 -19 43 -46 74 -141 395
-117 395 4 0 19 -42 35 -92 15 -51 45 -137 65 -192 l38 -99 7 109 c16 240 97
518 176 602 12 13 20 25 19 26 -2 2 -74 0 -159 -4 -141 -7 -374 0 -555 16
l-70 6 82 -79z"/>
<path d="M8690 9110 c-67 -25 -152 -105 -169 -160 -18 -62 -15 -97 12 -104 46
-12 52 -8 54 39 2 44 17 85 31 85 4 0 6 -28 4 -62 -6 -115 67 -344 119 -376
41 -26 44 -4 24 163 -17 136 -17 180 0 164 6 -7 41 -189 50 -259 11 -96 45
-144 79 -110 12 12 14 316 2 365 -5 20 -3 26 6 23 22 -8 39 -108 41 -253 2
-148 6 -165 38 -165 48 0 85 180 71 343 -8 91 0 119 19 70 14 -34 17 -246 6
-324 -8 -48 -7 -57 8 -62 72 -28 137 248 96 410 -42 167 -303 280 -491 213z"/>
<path d="M10026 9034 c-31 -78 -88 -275 -81 -282 3 -3 15 8 27 24 102 130 113
133 194 53 73 -72 75 -71 35 9 -16 32 -43 99 -61 149 -29 83 -51 113 -84 113
-2 0 -16 -30 -30 -66z"/>
<path d="M11477 9008 c-144 -151 -214 -543 -143 -803 14 -55 70 -166 62 -125
-3 14 -13 66 -23 115 -49 251 -1 557 110 690 37 44 43 24 8 -27 -106 -157
-136 -527 -65 -802 14 -53 131 -376 139 -385 2 -2 18 7 35 19 65 47 199 65
265 36 28 -12 25 -13 -60 -18 -98 -6 -180 -32 -230 -72 -28 -22 -29 -26 -18
-55 10 -29 6 -45 -57 -199 -37 -92 -81 -197 -98 -233 l-30 -66 48 -6 c117 -14
270 -135 335 -266 14 -27 25 -54 25 -60 0 -68 142 133 275 391 123 238 159
351 159 498 0 115 0 116 -60 295 -128 377 -307 792 -404 935 -42 62 -115 127
-181 161 -49 25 -46 26 -92 -23z m371 -1409 c31 -13 24 -14 -107 -14 -77 0
-137 2 -135 5 30 30 180 36 242 9z"/>
<path d="M1393 8946 l-31 -43 -141 -1544 c-144 -1569 -160 -1738 -231 -2464
-46 -463 -157 -1559 -164 -1620 l-5 -40 50 52 c30 31 49 61 49 75 0 13 9 109
20 213 33 314 161 1614 210 2135 29 308 121 1344 180 2030 16 190 34 395 40
455 5 61 21 247 35 415 14 168 27 322 29 343 5 47 -2 46 -41 -7z"/>
<path d="M1301 8828 l-35 -41 -52 -551 c-29 -303 -87 -909 -129 -1346 -163
-1717 -210 -2175 -345 -3404 -22 -198 -38 -361 -37 -363 2 -1 24 19 50 45 l48
48 24 240 c54 517 145 1426 200 1999 67 693 315 3416 311 3415 -1 0 -16 -19
-35 -42z"/>
<path d="M7315 8810 c-869 -43 -1489 -225 -1807 -529 l-78 -74 0 -2673 0
-2674 73 58 c753 598 2241 768 3945 451 62 -12 115 -20 117 -17 2 2 -7 152
-21 333 -84 1139 -107 1460 -139 1950 -14 209 -34 511 -45 670 -44 641 -120
1859 -136 2164 l-7 134 -27 -59 c-36 -79 -59 -98 -106 -91 -28 5 -43 1 -62
-13 -32 -26 -63 -25 -91 1 -17 16 -25 18 -36 9 -18 -15 -61 -3 -83 24 -11 14
-26 20 -44 18 -58 -7 -111 63 -144 187 -9 36 -20 69 -23 73 -30 35 -930 76
-1286 58z m-373 -1195 c12 -152 26 -2767 15 -2788 -4 -10 -16 -17 -25 -15 -28
5 -30 107 -41 1537 -11 1389 -11 1376 28 1369 13 -3 17 -23 23 -103z m805
-217 c8 -11 37 -1261 45 -1972 3 -198 1 -220 -14 -230 -41 -26 -39 -79 -69
1530 -7 357 -10 658 -6 667 8 20 31 22 44 5z m-708 -7 c11 -7 15 -89 18 -462
4 -570 8 -639 34 -639 18 0 19 13 21 273 l3 272 25 0 25 0 7 -335 c4 -184 7
-425 5 -535 l-2 -200 -25 0 -25 0 -6 245 c-8 297 -5 270 -31 270 l-21 0 6
-529 c7 -559 6 -564 -37 -548 -21 8 -24 124 -35 1202 -10 1026 -10 1016 38
986z m-205 -259 c2 -10 6 -395 8 -857 l3 -840 -25 0 -25 0 -6 280 c-12 541
-11 1428 2 1436 17 10 37 1 43 -19z m813 -24 c6 -8 13 -145 17 -323 25 -1201
26 -1268 15 -1281 -29 -35 -50 -6 -54 77 -8 157 -28 1507 -22 1523 8 19 31 21
44 4z m211 0 c9 -12 22 -410 38 -1258 6 -308 6 -336 -10 -349 -42 -35 -43 -29
-61 802 -13 621 -14 791 -5 802 15 18 24 19 38 3z m-1587 -80 c0 -7 2 -24 3
-38 1 -14 3 -184 4 -377 2 -346 2 -353 22 -353 19 0 20 7 20 250 0 227 2 250
18 258 40 21 42 11 42 -249 0 -242 1 -249 20 -249 19 0 20 7 20 119 0 123 9
151 45 137 12 -4 15 -28 15 -126 0 -100 2 -120 15 -120 11 0 15 12 15 44 0 31
5 46 16 50 26 10 34 -2 34 -50 0 -32 4 -44 15 -44 11 0 15 19 17 93 3 84 5 92
23 92 18 0 20 -8 23 -87 1 -49 7 -88 12 -88 6 0 13 -1 17 -2 4 -2 8 107 8 241
0 220 2 245 17 255 38 23 39 3 45 -496 6 -509 6 -507 -37 -493 -19 6 -20 17
-22 223 -3 185 -5 217 -18 217 -12 0 -16 -17 -18 -80 -3 -78 -12 -98 -39 -88
-9 4 -13 27 -13 84 0 62 -3 79 -14 79 -10 0 -16 -14 -18 -42 -2 -35 -7 -43
-23 -43 -16 0 -21 8 -23 43 -2 28 -7 42 -15 39 -8 -2 -13 -40 -15 -114 -2 -91
-6 -112 -19 -117 -34 -13 -43 12 -43 121 0 93 -2 104 -17 101 -16 -3 -17 -23
-14 -234 3 -241 -1 -264 -41 -249 -15 6 -28 191 -28 398 0 70 -2 77 -20 77
-20 0 -20 -7 -20 -374 0 -320 -2 -375 -15 -386 -12 -10 -18 -10 -30 0 -13 11
-15 66 -15 381 l0 369 -25 0 -25 0 0 -234 c0 -207 -2 -235 -16 -240 -40 -15
-44 6 -44 240 0 217 -1 224 -20 224 -19 0 -20 -7 -20 -134 0 -139 -7 -164 -44
-150 -14 5 -16 26 -16 141 0 123 -2 134 -17 131 -15 -3 -18 -15 -19 -68 -1
-36 -4 -72 -7 -80 -4 -8 -8 -31 -9 -50 -2 -27 -7 -35 -23 -35 -19 0 -20 5 -16
113 3 108 3 112 -17 112 -18 0 -21 -7 -24 -57 -3 -50 -6 -58 -23 -58 -17 0
-20 8 -23 53 -3 44 -6 53 -20 50 -9 -2 -18 -9 -18 -16 -1 -6 -2 -19 -3 -27 -2
-26 -41 -18 -41 8 0 33 -10 40 -32 20 -16 -14 -22 -15 -40 -4 -13 8 -36 10
-68 6 -32 -4 -50 -3 -55 5 -10 17 -1 22 52 27 26 3 56 13 66 21 15 13 22 14
38 4 16 -11 20 -10 25 5 22 71 39 81 57 33 19 -51 37 -37 37 29 0 62 7 75 34
65 12 -5 16 -20 16 -60 0 -48 2 -54 21 -54 20 0 20 3 14 108 -6 93 -5 110 9
121 34 28 46 -2 46 -115 0 -97 1 -104 20 -104 19 0 20 7 20 154 0 133 2 155
16 160 37 14 44 -10 44 -160 0 -137 1 -144 20 -144 19 0 20 7 20 255 0 219 2
256 15 261 41 16 45 -7 45 -262 l0 -244 25 0 24 0 -6 368 c-7 403 -5 422 32
422 14 0 25 -6 26 -12z m1284 -230 c6 -17 23 -960 18 -975 -7 -17 -35 -25 -47
-13 -7 7 -13 94 -16 233 -5 201 -7 222 -22 225 -16 3 -18 -6 -18 -91 0 -70 -4
-96 -13 -100 -27 -10 -35 10 -39 98 -4 72 -8 91 -21 93 -13 3 -17 -8 -19 -60
-3 -60 -4 -63 -28 -63 -24 0 -25 3 -28 63 -3 53 -6 63 -20 60 -15 -3 -17 -20
-17 -142 0 -119 -2 -140 -17 -149 -12 -8 -21 -7 -32 2 -14 12 -16 50 -14 325
l3 311 25 0 25 0 3 -152 c2 -145 4 -153 22 -153 18 0 20 7 20 60 0 46 4 62 16
67 24 9 32 -7 36 -67 2 -42 7 -55 21 -58 15 -3 17 7 17 98 0 81 3 102 15 106
34 13 45 -15 45 -112 0 -85 2 -94 19 -94 18 0 19 9 13 234 -3 129 -2 241 1
250 7 19 46 21 52 4z m426 -115 c4 -67 8 -294 10 -505 l4 -383 -25 0 -25 0 -9
240 c-7 203 -11 241 -25 253 -15 12 -14 13 2 8 18 -6 19 4 12 243 -8 260 -6
274 28 269 21 -3 22 -10 28 -125z m373 95 c3 -13 7 -102 10 -198 3 -96 10
-306 17 -467 12 -312 11 -326 -23 -321 -23 3 -23 5 -33 238 -5 129 -13 234
-17 233 -5 -2 -12 -3 -18 -3 -6 0 -10 -38 -10 -94 0 -71 -3 -95 -14 -99 -27
-10 -36 17 -36 105 0 81 -2 88 -20 88 -18 0 -20 -7 -20 -60 0 -47 -4 -62 -16
-67 -25 -9 -44 24 -44 79 0 40 -3 48 -19 48 -18 0 -19 -8 -18 -127 l2 -128
-26 -3 -26 -3 -7 148 c-12 276 -10 434 4 443 39 24 50 -15 50 -171 0 -60 2
-109 4 -109 2 0 11 -3 20 -6 14 -5 16 4 16 65 0 55 4 73 15 77 30 12 45 -15
45 -82 0 -50 3 -64 15 -64 12 0 15 18 15 100 0 82 3 102 16 107 27 10 36 -13
41 -116 5 -84 9 -101 22 -101 14 0 15 23 8 241 -5 132 -6 247 -3 255 9 23 45
17 50 -8z m110 -231 c3 -23 8 -160 12 -304 6 -243 6 -263 -10 -269 -40 -15
-44 9 -53 310 -6 231 -5 292 5 302 21 21 40 5 46 -39z m80 -73 c10 -4 16 -18
16 -39 0 -78 13 -155 26 -155 10 0 14 16 14 61 0 57 1 60 23 57 21 -3 22 -8
29 -128 6 -105 5 -127 -8 -140 -22 -22 -44 11 -44 67 0 33 -4 43 -16 43 -14 0
-16 -11 -13 -71 3 -59 1 -74 -13 -83 -12 -7 -21 -7 -28 0 -12 12 -27 352 -17
378 7 18 9 18 31 10z m194 -172 c3 -30 42 -51 42 -22 0 16 37 12 44 -5 4 -11
21 -15 66 -15 47 0 60 -3 60 -15 0 -12 -14 -15 -65 -15 -37 0 -65 -4 -65 -10
0 -5 -9 -10 -20 -10 -11 0 -20 5 -20 10 0 6 -7 10 -15 10 -8 0 -15 -8 -15 -18
0 -24 -19 -42 -36 -35 -23 9 -20 166 4 161 11 -2 18 -14 20 -36z"/>
<path d="M9230 8736 c0 -56 3 -67 22 -80 55 -39 63 -4 18 84 -17 33 -32 60
-35 60 -3 0 -5 -29 -5 -64z"/>
<path d="M1192 8695 c-49 -63 -44 -37 -92 -505 -53 -524 -128 -1266 -165
-1625 -20 -192 -58 -568 -85 -835 -77 -762 -195 -1792 -285 -2495 -19 -148
-35 -278 -35 -287 0 -10 28 13 73 60 l73 77 12 105 c22 190 111 1007 157 1445
69 661 95 933 290 2980 88 926 106 1111 110 1123 10 27 -12 9 -53 -43z"/>
<path d="M2537 8620 c-4 -18 -7 -54 -7 -81 0 -57 -11 -53 170 -68 69 -6 205
-21 303 -32 97 -12 179 -20 181 -18 2 2 7 41 11 85 l7 81 -93 12 c-138 17
-360 39 -470 47 l-96 7 -6 -33z"/>
<path d="M9260 8559 c0 -16 4 -94 10 -172 5 -78 16 -252 25 -387 25 -407 55
-886 65 -1040 5 -80 17 -253 25 -385 8 -132 24 -366 36 -520 11 -154 31 -449
44 -655 14 -206 36 -528 50 -715 45 -619 66 -907 84 -1145 l18 -235 42 -73
c24 -39 45 -72 48 -72 3 0 3 35 -1 78 -3 42 -15 196 -26 342 -24 317 -46 611
-99 1310 -41 530 -75 999 -131 1805 -17 242 -35 499 -40 570 -5 72 -26 377
-46 678 l-36 549 -30 49 c-36 58 -38 58 -38 18z"/>
<path d="M3216 8528 c-3 -29 -6 -67 -6 -84 l0 -32 83 -12 c117 -17 482 -79
535 -91 25 -5 46 -8 47 -7 2 2 5 40 7 85 l3 82 -49 11 c-117 25 -570 100 -605
100 -4 0 -11 -24 -15 -52z"/>
<path d="M2526 8458 c-2 -7 -7 -68 -10 -134 l-6 -122 73 -7 c70 -7 440 -48
545 -61 l52 -7 0 60 c0 33 3 94 6 135 l7 75 -124 16 c-68 9 -194 23 -279 32
-85 8 -179 18 -208 21 -38 4 -53 2 -56 -8z m326 -171 c12 -20 -4 -37 -37 -37
-41 0 -63 23 -45 45 14 17 69 12 82 -8z m136 -24 c4 -24 -14 -33 -52 -26 -32
6 -43 27 -27 47 17 21 75 6 79 -21z"/>
<path d="M3900 8378 l0 -84 143 -32 c78 -17 202 -48 275 -68 73 -20 135 -35
137 -32 2 2 7 38 11 80 l7 76 -69 22 c-94 29 -400 107 -457 115 l-47 7 0 -84z"/>
<path d="M9350 8443 c0 -5 4 -66 10 -138 5 -71 16 -240 25 -375 18 -282 95
-1387 150 -2160 19 -264 84 -1119 130 -1725 19 -247 42 -559 52 -693 l17 -243
53 -87 c29 -47 53 -83 53 -79 0 4 -16 195 -35 425 -81 952 -197 2377 -270
3307 -15 201 -85 1191 -106 1510 -11 162 -13 172 -41 218 -29 46 -38 55 -38
40z"/>
<path d="M3206 8338 c-3 -29 -6 -89 -7 -133 l-2 -80 169 -26 c93 -15 243 -40
334 -57 90 -17 165 -30 166 -29 1 1 3 62 5 136 l4 135 -155 28 c-180 33 -464
78 -490 78 -14 0 -19 -11 -24 -52z m311 -128 c6 0 2 -26 -5 -38 -11 -16 -69
-5 -77 15 -10 27 13 42 48 32 18 -5 33 -9 34 -9z m131 -38 c6 -38 -68 -44 -82
-6 -10 25 3 35 42 32 30 -2 38 -8 40 -26z"/>
<path d="M4485 8257 c-14 -107 -16 -104 125 -152 159 -54 257 -93 370 -150 49
-25 92 -45 95 -45 3 0 5 33 5 73 l0 73 -72 41 c-122 67 -468 213 -508 213 -5
0 -12 -24 -15 -53z"/>
<path d="M11150 7298 c-53 -35 -272 -143 -312 -153 -16 -4 -28 -11 -28 -17 0
-32 279 100 375 178 42 34 19 29 -35 -8z"/>
<path d="M11204 7059 c-72 -50 -123 -98 -175 -165 -67 -87 -43 -72 69 43 59
60 123 122 142 136 56 41 29 31 -36 -14z"/>
<path d="M11325 6984 c-21 -38 -44 -79 -51 -91 -18 -29 -18 -33 4 -33 73 -1
239 -142 297 -252 17 -32 33 -58 36 -58 14 0 106 110 124 145 17 37 17 39 -6
88 -51 109 -221 246 -326 263 l-41 6 -37 -68z"/>
<path d="M9860 6965 c-1 -6 0 -120 0 -254 l1 -243 -41 4 c-44 4 -57 -15 -17
-26 94 -25 98 -10 85 274 -5 129 -14 239 -19 245 -6 6 -9 6 -9 0z"/>
<path d="M10075 6888 c3 -18 7 -54 10 -80 8 -64 19 -68 167 -68 158 0 158 0
151 103 -5 68 -8 77 -25 77 -18 0 -20 -6 -17 -72 l4 -73 -109 -3 c-129 -3
-132 -1 -141 84 -6 53 -11 64 -26 64 -14 0 -17 -6 -14 -32z"/>
<path d="M11228 6796 c-16 -22 -15 -26 34 -116 64 -120 180 -302 193 -304 6 0
24 35 41 79 18 44 36 90 42 102 13 30 -24 88 -104 164 -99 94 -173 121 -206
75z"/>
<path d="M10255 6578 c7 -129 30 -246 66 -336 16 -41 29 -75 29 -78 0 -2 -34
14 -75 35 -41 22 -75 38 -75 35 0 -7 131 -89 190 -119 68 -34 66 -31 74 -123
3 -42 20 -189 36 -327 16 -137 37 -311 45 -385 9 -74 18 -150 20 -168 l4 -34
-27 18 c-37 25 -131 77 -165 92 -38 16 -24 -4 16 -24 18 -9 64 -40 102 -69 73
-55 85 -65 477 -426 254 -233 409 -369 424 -369 17 0 -225 230 -632 602 l-161
146 -7 79 c-22 246 -125 1035 -137 1047 -5 6 -9 -2 -9 -22 l0 -32 -34 17 c-62
29 -105 153 -147 423 l-18 115 4 -97z"/>
<path d="M9794 6285 c3 -49 8 -144 11 -210 9 -169 53 -825 66 -975 12 -145 31
-234 59 -290 26 -51 33 -51 15 0 -24 68 -56 413 -100 1070 -15 228 -38 467
-47 480 -5 10 -7 -17 -4 -75z"/>
<path d="M11495 3978 c-53 -92 -105 -165 -173 -246 -56 -66 -46 -96 13 -39 20
20 62 49 93 65 54 27 58 32 84 98 24 63 46 189 35 200 -3 3 -26 -32 -52 -78z"/>
<path d="M11887 3777 c-15 -111 -32 -271 -38 -355 -12 -176 -34 -277 -83 -377
-64 -130 -188 -255 -253 -255 -13 0 -21 -4 -18 -10 17 -28 109 7 173 64 131
119 198 300 212 581 6 99 19 234 30 300 20 121 26 255 13 255 -5 0 -21 -91
-36 -203z"/>
<path d="M11185 3620 c-3 -5 -1 -10 4 -10 6 0 11 5 11 10 0 6 -2 10 -4 10 -3
0 -8 -4 -11 -10z"/>
<path d="M11425 3605 c-43 -23 -75 -56 -75 -77 0 -24 3 -23 41 12 18 16 50 35
71 42 21 7 39 18 41 23 4 17 -46 16 -78 0z"/>
<path d="M11461 3499 c-42 -17 -81 -50 -81 -70 0 -24 12 -24 34 0 15 16 61 40
109 55 10 3 15 10 12 16 -8 12 -42 12 -74 -1z"/>
<path d="M7635 3474 c-1012 -49 -1746 -264 -2145 -627 -49 -45 -50 -42 20 -59
l55 -13 107 71 c359 240 815 385 1428 454 665 74 1535 45 2384 -81 76 -11 140
-18 142 -16 2 2 -7 24 -21 49 l-25 44 -142 27 c-586 111 -1340 174 -1803 151z"/>
<path d="M1249 3443 l-175 -3 -57 -58 -56 -57 937 0 c661 0 991 -4 1122 -13
991 -69 1607 -218 2069 -499 60 -37 67 -39 110 -30 118 23 119 14 -9 99 -678
450 -1721 598 -3941 561z"/>
<path d="M11502 3395 c-59 -18 -92 -42 -92 -65 0 -23 13 -26 29 -6 7 8 37 25
67 37 30 13 54 29 54 36 0 16 -3 15 -58 -2z"/>
<path d="M10613 3349 c-40 -12 -44 -33 -5 -25 79 16 104 17 158 7 77 -15 152
-52 204 -102 l42 -41 29 28 c38 36 37 38 -13 42 -26 2 -62 16 -98 38 -97 60
-222 80 -317 53z"/>
<path d="M7625 3319 c-857 -27 -1478 -182 -1947 -487 -48 -31 -88 -60 -88 -63
0 -3 27 -18 59 -34 l60 -28 73 45 c608 377 1696 529 3028 423 188 -15 790 -79
859 -92 37 -6 37 -6 1 54 -28 48 0 41 -406 93 -605 77 -1125 106 -1639 89z"/>
<path d="M1340 3310 l-405 -9 -49 -51 c-27 -28 -47 -53 -44 -55 2 -2 148 0
323 5 1878 55 3074 -86 3734 -441 l93 -51 57 25 c31 14 63 27 71 29 33 10
-223 147 -415 221 -690 269 -1659 363 -3365 327z"/>
<path d="M11473 3269 c-40 -19 -52 -37 -37 -52 3 -3 20 3 37 13 18 10 51 23
75 30 23 6 40 15 37 20 -10 17 -68 11 -112 -11z"/>
<path d="M10583 3209 c-51 -15 -39 -27 20 -18 68 11 157 -4 214 -36 48 -26 65
-27 44 -1 -35 42 -210 77 -278 55z"/>
<path d="M1056 3179 l-239 -7 -56 -57 -56 -56 185 5 c916 28 1849 8 2425 -49
608 -62 1176 -200 1509 -367 l58 -29 27 24 c14 13 36 31 49 39 23 15 23 16
-33 47 -375 212 -1035 368 -1800 426 -452 34 -1399 45 -2069 24z"/>
<path d="M7655 3183 c-876 -52 -1415 -178 -1841 -428 l-97 -58 24 -19 c79 -62
69 -60 130 -26 690 381 1943 501 3588 343 144 -14 273 -25 287 -25 l26 0 -23
38 c-12 20 -25 40 -28 44 -10 11 -576 77 -886 103 -378 31 -917 44 -1180 28z"/>
<path d="M10535 3134 c-48 -14 -29 -21 52 -20 86 0 213 -30 228 -55 4 -5 11
-9 17 -9 22 0 -28 43 -71 63 -44 19 -183 32 -226 21z"/>
<path d="M1089 3050 l-397 -8 -70 -74 c-39 -40 -69 -74 -68 -75 1 -1 124 2
275 7 1223 40 2259 14 2836 -71 425 -62 858 -171 1091 -274 l52 -23 31 38 30
38 -87 40 c-701 323 -1788 441 -3693 402z"/>
<path d="M7870 3044 c-914 -43 -1442 -144 -1910 -366 -139 -66 -139 -67 -106
-111 l28 -36 66 33 c109 55 325 130 512 179 671 176 1485 225 2810 168 617
-27 554 -27 536 7 -16 32 4 29 -496 72 -491 42 -1156 67 -1440 54z"/>
<path d="M11035 2880 c-130 -70 -202 -89 -371 -97 -122 -6 -301 9 -337 29 -15
8 -18 6 -15 -9 7 -37 69 -48 293 -48 249 0 300 11 449 101 168 101 154 117
-19 24z"/>
  </g>
  <!-- Brand color strokes: vest, outlines, glasses — changes per background -->
  <g transform="translate(0,1254) scale(0.1,-0.1)" fill="currentColor" stroke="none">
    <path d="M10305 10814 c-381 -41 -488 -90 -487 -223 1 -45 -2 -50 -28 -61 -40
-17 -107 -92 -133 -148 -47 -107 -24 -345 37 -384 6 -4 16 -33 21 -65 10 -52
9 -61 -10 -86 -38 -54 -13 -210 48 -291 16 -21 26 -50 30 -89 7 -73 50 -165
110 -238 l45 -57 -236 -7 c-153 -5 -315 -4 -457 4 -213 12 -222 13 -290 43
-250 112 -567 -49 -610 -309 -7 -43 -7 -43 -43 -38 -188 26 -858 35 -1137 15
-818 -58 -1384 -233 -1694 -526 l-67 -62 -39 61 c-47 73 -205 236 -289 297
-450 328 -1154 522 -2226 616 -200 18 -1125 32 -1228 19 -69 -8 -50 11 -322
-337 -196 -252 -220 -287 -220 -331 0 -21 -5 -22 -72 -22 -84 0 -124 -21 -151
-78 -12 -24 -34 -213 -77 -653 -33 -340 -78 -792 -101 -1004 -22 -212 -55
-541 -75 -733 -86 -866 -166 -1573 -284 -2492 -58 -456 -103 -851 -103 -896 1
-80 54 -148 131 -169 20 -5 240 -21 487 -35 248 -14 729 -43 1070 -65 341 -22
703 -44 805 -50 102 -6 349 -22 550 -35 201 -13 608 -38 905 -56 l540 -33 37
-33 c255 -224 873 -230 1163 -11 l60 46 155 11 c188 13 1340 85 1720 106 969
55 2064 124 2119 135 101 18 160 92 161 201 0 51 -30 368 -65 689 -8 74 -33
324 -55 555 -23 231 -47 477 -53 546 l-13 126 206 -186 c113 -102 343 -306
510 -452 168 -146 347 -304 399 -350 l93 -83 29 17 c16 9 29 13 29 9 0 -9 -54
-42 -69 -42 -17 0 -159 122 -463 398 -132 119 -170 150 -153 122 8 -13 9 -668
0 -711 -6 -30 -3 -40 15 -57 l23 -21 -42 -84 c-28 -57 -70 -116 -126 -181 -60
-68 -87 -107 -95 -138 -6 -24 -16 -57 -21 -74 -33 -108 19 -147 221 -166 219
-20 443 16 535 86 18 14 41 26 50 26 23 0 87 35 110 60 25 27 25 151 -1 306
-16 101 -16 102 5 123 12 12 21 28 21 37 0 28 31 308 36 323 8 24 35 -11 45
-56 4 -21 23 -81 42 -133 58 -162 72 -261 53 -367 -26 -140 -18 -197 35 -257
16 -19 29 -38 29 -43 0 -5 10 -19 23 -31 109 -102 334 74 423 330 34 96 54
222 54 333 0 126 10 195 27 195 23 0 36 54 67 283 9 71 -43 137 -110 137 -9 0
-29 11 -46 25 -34 29 -133 61 -235 77 l-71 11 5 31 c5 29 -1 36 -87 106 l-92
74 6 61 c3 33 22 224 41 425 38 393 96 927 144 1320 16 135 33 272 36 306 6
55 11 65 52 104 24 24 55 63 69 86 13 23 42 54 64 69 73 51 183 217 302 460
108 220 132 303 133 455 0 145 -19 219 -144 552 -209 555 -323 761 -474 856
-36 23 -68 46 -72 51 -5 9 -173 65 -450 152 -23 7 -35 21 -53 63 -13 30 -34
64 -47 76 -22 20 -22 23 -9 67 8 26 14 63 14 83 0 36 1 38 42 43 58 8 88 34
128 112 62 121 46 290 -36 354 l-26 20 43 45 c77 84 101 129 116 223 11 68
-57 52 -145 -34 -30 -30 -55 -52 -56 -51 -1 2 -7 45 -14 96 -21 178 -120 312
-230 312 -23 0 -35 9 -55 39 -62 94 -271 147 -482 125z m311 -269 c81 -24 100
-53 112 -167 12 -106 35 -171 81 -224 26 -29 51 -87 51 -120 0 -6 -38 -16 -90
-23 l-90 -13 -26 32 c-105 124 -330 81 -375 -71 -11 -36 -15 -39 -40 -34 -15
3 -42 0 -61 -8 -34 -14 -34 -14 -56 19 -12 18 -42 45 -67 60 -82 47 -229 16
-275 -58 l-19 -31 -8 39 c-24 114 2 297 59 412 40 81 121 167 146 156 28 -13
214 -16 273 -5 30 6 95 19 144 30 110 24 176 26 241 6z m242 -218 c15 -16 49
-40 75 -54 60 -30 56 -41 -4 -15 -70 30 -132 104 -153 182 -4 14 7 0 24 -30
17 -30 43 -68 58 -83z m390 -22 c-9 -20 -14 -23 -25 -13 -13 10 -12 14 3 25
27 20 35 16 22 -12z m-18 -57 c0 -8 -73 -110 -114 -159 -15 -17 -34 -29 -48
-29 -13 0 -33 -7 -44 -15 -72 -55 -20 34 113 192 44 53 45 53 68 35 14 -9 25
-20 25 -24z m-650 -201 c160 -84 89 -330 -95 -330 -80 0 -138 40 -170 115 -49
119 36 238 170 238 35 0 66 -8 95 -23z m535 -31 c51 -22 70 -65 69 -161 -1
-106 -16 -156 -64 -206 -39 -41 -60 -46 -118 -28 -10 3 -15 -13 -18 -61 -15
-205 -86 -311 -360 -535 -137 -111 -257 -229 -308 -299 -13 -18 -17 -12 -65
83 -28 56 -51 111 -51 121 0 11 -9 42 -20 70 -11 28 -20 52 -20 54 0 2 19 -3
42 -11 154 -53 340 -7 425 105 48 64 40 70 -19 16 -87 -78 -144 -99 -268 -99
-116 0 -146 10 -207 68 -34 32 -41 30 -22 -4 18 -35 -81 23 -151 88 -71 66
-123 157 -139 248 -10 60 -20 195 -14 195 2 0 17 -10 34 -22 55 -41 151 -37
242 10 4 2 7 -8 7 -23 0 -14 4 -34 9 -43 6 -13 1 -23 -23 -42 l-31 -25 18 28
c19 29 17 45 -3 32 -46 -29 -83 -139 -64 -189 12 -32 24 -14 22 34 -1 29 3 55
10 62 10 10 11 6 6 -20 -6 -31 -4 -33 42 -54 60 -26 169 -35 245 -19 97 20
269 114 269 147 0 23 -88 73 -142 80 -41 6 -48 10 -48 29 0 22 -35 63 -46 53
-3 -4 0 -15 7 -26 19 -30 5 -49 -60 -82 -71 -35 -118 -38 -155 -9 -33 26 -34
59 -1 160 13 42 26 89 28 105 9 65 81 57 107 -13 49 -133 184 -188 307 -125
75 39 113 104 113 196 l0 55 48 6 c26 4 64 11 85 15 43 9 43 9 55 -60 7 -41
10 -45 36 -45 24 0 31 6 45 42 22 56 67 103 109 112 1 1 18 -5 37 -13z m-1104
-37 c94 -32 137 -143 95 -243 -54 -128 -257 -123 -317 8 -64 141 72 285 222
235z m-256 -249 c12 -19 23 -130 14 -130 -10 0 -38 86 -45 142 -8 61 6 102 15
43 4 -22 11 -47 16 -55z m559 -309 c-2 -2 -22 -7 -44 -11 -36 -7 -40 -5 -34 9
3 9 9 26 11 38 l5 23 33 -28 c17 -15 31 -29 29 -31z m706 -123 c17 -35 30 -71
30 -81 0 -47 -208 -507 -229 -507 -5 0 -16 6 -23 14 -117 123 -155 157 -176
163 -35 9 -97 -26 -158 -89 -57 -59 -53 -59 41 3 102 67 99 67 161 7 l54 -53
-40 -113 c-127 -359 -176 -723 -151 -1131 30 -496 83 -708 226 -903 50 -68 63
-72 121 -43 61 31 182 122 252 188 28 28 52 47 52 41 0 -19 -186 -192 -250
-233 -92 -59 -114 -61 -162 -15 -73 72 -169 269 -192 397 l-7 37 -82 -7 c-199
-19 -585 -6 -622 21 -25 18 -26 468 -2 682 47 417 171 1119 204 1156 24 27 31
24 127 -66 l88 -82 -25 -50 c-33 -67 -105 -462 -147 -809 -40 -329 -37 -631 6
-784 23 -80 27 -56 8 50 -25 142 -15 558 19 809 43 314 104 639 131 705 36 84
190 245 381 397 143 113 264 238 300 307 14 28 28 51 31 51 2 0 18 -28 34 -62z
m-8340 -99 c1030 -62 1810 -258 2300 -578 109 -71 301 -262 353 -351 l37 -65
0 -2692 c0 -1481 -3 -2693 -6 -2693 -3 0 -42 27 -87 59 -45 32 -106 73 -135
91 l-52 32 7 2582 6 2582 -149 76 c-612 313 -1629 512 -2844 557 -129 5 -236
8 -237 8 -1 -1 -3 -29 -4 -62 l-3 -60 200 -8 c109 -4 255 -11 324 -15 l125 -7
-4 -80 c-1 -44 -4 -81 -6 -83 -1 -2 -103 4 -226 12 -281 19 -415 23 -425 14
-4 -5 -1 -8 7 -8 44 0 553 -30 597 -36 51 -5 53 -7 48 -32 -3 -15 -8 -74 -11
-132 l-7 -105 -56 1 c-55 1 -56 1 -7 -3 28 -2 53 -7 57 -11 4 -4 -4 -162 -17
-352 -13 -190 -27 -390 -30 -445 -3 -55 -15 -230 -25 -390 -29 -417 -70 -1063
-70 -1092 0 -7 -8 -14 -17 -14 -17 -1 -17 -2 0 -6 15 -4 17 -13 12 -66 -3 -34
-15 -206 -26 -382 -11 -176 -21 -349 -24 -385 -2 -36 -9 -165 -16 -287 l-13
-223 -25 -1 c-26 -2 -26 -2 -2 -6 l24 -5 -7 -126 c-10 -194 -16 -293 -26 -462
-13 -195 -12 -230 0 -230 6 0 10 21 10 48 0 26 3 84 7 130 6 80 7 82 32 83 25
2 25 2 -3 6 l-28 5 6 61 c6 59 11 141 36 572 15 253 39 658 45 735 2 36 7 106
10 155 9 154 35 556 40 635 2 41 9 158 15 260 13 231 16 250 38 251 14 1 14 2
-2 6 -19 5 -19 63 -1 278 3 28 16 228 30 445 47 712 52 791 58 796 5 5 369
-31 570 -57 l87 -12 0 -51 c0 -28 -4 -123 -10 -211 -5 -88 -12 -212 -15 -275
-3 -63 -10 -185 -15 -270 -5 -85 -12 -200 -15 -255 -3 -55 -12 -228 -20 -385
-8 -157 -17 -337 -20 -400 -3 -63 -7 -160 -10 -215 -3 -55 -12 -242 -20 -415
-8 -173 -17 -360 -20 -415 -3 -55 -14 -289 -25 -520 -11 -231 -22 -460 -25
-510 -2 -49 -7 -157 -10 -240 -3 -82 -8 -183 -11 -222 -4 -47 -3 -73 4 -73 10
0 18 85 27 295 3 66 12 260 20 430 19 380 23 467 30 620 15 325 35 750 40 835
3 52 12 237 21 410 8 173 17 356 19 405 3 50 7 144 10 210 5 107 19 343 30
510 2 33 12 212 21 398 15 292 20 337 33 337 37 0 427 -65 609 -101 l54 -11
-6 -76 c-3 -43 -8 -162 -11 -267 -3 -104 -14 -440 -25 -745 -11 -305 -22 -634
-25 -730 -3 -96 -8 -222 -10 -280 -2 -58 -7 -184 -10 -280 -3 -96 -10 -308
-15 -470 -5 -162 -14 -446 -20 -630 -5 -184 -12 -382 -15 -440 -14 -314 -17
-520 -6 -520 7 0 11 26 11 73 0 39 4 180 10 312 5 132 12 328 15 435 8 292 14
449 35 1090 11 322 23 666 26 765 3 99 7 209 9 245 2 36 3 100 4 143 1 66 4
77 19 78 16 1 16 2 0 6 -10 2 -18 10 -18 16 0 7 7 179 15 382 7 204 19 539 25
745 7 206 15 387 19 401 l6 26 165 -38 c91 -22 216 -53 278 -70 l112 -31 0
-129 c0 -147 8 -138 -97 -109 -113 31 -435 101 -451 98 -8 -2 72 -22 179 -46
107 -23 232 -52 279 -65 l85 -22 -1 -125 c-1 -149 -10 -662 -29 -1690 -8 -415
-17 -915 -20 -1110 -3 -195 -7 -443 -10 -550 -14 -584 -17 -970 -8 -970 7 0
13 163 17 453 3 248 8 540 11 647 3 107 7 341 10 520 9 538 15 874 20 1080 3
107 8 366 11 575 4 265 10 382 18 387 8 6 8 8 -1 8 -10 0 -8 496 3 509 1 1 33
-7 69 -19 36 -12 68 -20 71 -18 2 3 -30 15 -71 28 l-75 24 1 65 c1 36 4 92 8
123 l6 57 160 -53 c88 -29 214 -76 279 -104 66 -29 121 -50 123 -48 12 12
-400 170 -554 212 -11 3 -21 264 -10 264 37 0 402 -142 530 -206 l67 -34 0
-120 c0 -87 -3 -120 -12 -120 -9 0 -9 -3 0 -12 14 -14 17 -1837 5 -3589 l-6
-1034 -103 53 c-624 320 -1681 450 -3442 423 -233 -3 -425 -5 -426 -4 -1 2 8
101 21 220 150 1420 217 2144 328 3558 28 355 113 1410 151 1863 5 63 8 73 27
77 67 16 772 12 1057 -6z m6213 -9 c36 -11 76 -29 89 -41 12 -11 16 -18 8 -15
-101 34 -128 38 -201 33 -172 -12 -298 -119 -316 -269 -5 -44 -8 -49 -27 -44
-12 3 -29 6 -38 6 -50 0 1 139 84 226 105 112 253 150 401 104z m-7347 -127
c-4 -43 -20 -240 -36 -438 -43 -520 -87 -1063 -115 -1430 -90 -1150 -193
-2268 -305 -3315 -16 -151 -32 -305 -36 -341 -6 -64 -8 -69 -60 -120 -30 -29
-54 -50 -54 -47 0 4 9 89 20 190 10 101 44 433 74 738 122 1218 162 1647 260
2780 103 1180 117 1339 141 1637 l24 312 43 56 c24 30 45 55 47 55 1 0 0 -35
-3 -77z m7799 58 c94 -5 238 -6 320 -2 83 4 152 6 154 5 1 -2 -7 -13 -19 -26
-79 -84 -160 -362 -176 -602 l-7 -110 -48 130 c-26 71 -55 157 -65 192 -28
103 -34 70 -8 -49 22 -100 68 -233 100 -284 6 -11 15 -30 19 -43 l6 -22 -33
19 c-18 10 -49 22 -69 25 -25 4 -39 14 -47 31 -6 14 -43 72 -82 130 -60 91
-68 108 -58 124 17 28 -3 86 -57 166 -24 36 -51 91 -60 122 -14 49 -28 67 -98
136 l-82 79 70 -6 c39 -4 147 -10 240 -15z m-406 -10 c124 -39 219 -123 242
-214 41 -162 -24 -438 -96 -410 -15 5 -16 14 -8 62 11 79 8 291 -5 324 -20 49
-28 22 -20 -70 13 -166 -23 -343 -71 -343 -31 0 -35 16 -38 165 -2 147 -18
245 -42 253 -10 3 -12 0 -8 -12 4 -9 10 -83 13 -164 9 -193 -10 -257 -60 -206
-18 18 -20 24 -40 159 -22 143 -36 205 -48 205 -12 0 -8 -61 13 -223 14 -107
7 -128 -33 -104 -49 30 -121 265 -116 375 2 34 0 62 -4 62 -14 0 -29 -41 -31
-85 -2 -47 -8 -51 -54 -39 -54 15 -16 132 65 205 86 77 213 100 341 60z m1145
-22 c19 -9 32 -32 56 -102 18 -50 45 -118 62 -150 16 -32 28 -61 25 -63 -2 -2
-29 23 -61 56 -32 33 -65 60 -73 60 -16 0 -81 -62 -121 -114 -12 -16 -24 -27
-27 -24 -11 11 96 348 111 348 1 0 14 -5 28 -11z m1479 -55 c158 -80 265 -250
446 -709 223 -563 244 -679 166 -913 -71 -213 -334 -672 -384 -672 -4 0 -14
19 -22 42 -40 123 -221 278 -344 295 -53 7 -53 6 -19 80 97 214 164 399 153
420 -16 30 -7 48 43 77 57 33 147 56 228 57 l65 1 -35 15 c-57 25 -166 13
-239 -25 l-59 -31 -66 182 c-97 268 -101 285 -101 532 0 188 2 219 23 293 23
85 61 172 90 205 8 9 12 20 8 25 -24 23 -114 -149 -142 -273 -27 -114 -25
-324 4 -464 12 -58 20 -106 19 -108 -6 -5 -56 111 -66 152 -65 264 5 645 146
793 46 48 43 47 86 26z m-10129 -81 c-2 -21 -15 -175 -29 -343 -14 -168 -29
-352 -35 -410 -5 -58 -23 -265 -40 -460 -17 -195 -49 -557 -71 -805 -21 -247
-44 -504 -50 -570 -45 -529 -283 -2973 -294 -3020 -2 -11 -24 -40 -49 -64
l-45 -44 4 34 c8 55 143 1403 220 2189 31 321 241 2597 296 3214 20 227 20
228 52 272 39 53 46 54 41 7z m-101 -130 c-13 -167 -148 -1654 -254 -2793 -37
-406 -198 -2035 -254 -2574 l-24 -240 -48 -48 c-26 -26 -48 -46 -50 -45 -1 2
15 165 37 363 101 913 183 1703 235 2249 14 149 41 432 60 630 19 198 55 574
80 835 25 261 56 590 70 730 13 140 37 388 51 550 l27 295 36 48 c19 26 36 47
37 47 0 0 -1 -21 -3 -47z m6880 -28 c238 -18 380 -33 388 -43 3 -4 14 -37 23
-73 33 -124 86 -194 144 -187 18 2 33 -4 44 -18 22 -27 65 -39 83 -24 10 9 19
6 34 -9 26 -26 61 -27 93 -2 18 15 34 18 65 14 36 -5 42 -2 70 31 17 21 36 56
44 79 13 41 13 40 21 -88 54 -895 121 -1943 148 -2330 6 -77 26 -376 45 -665
20 -289 53 -768 75 -1065 22 -297 47 -632 55 -745 8 -113 17 -232 20 -264 l6
-59 -33 6 c-18 3 -109 19 -203 35 -1046 185 -2013 184 -2795 -4 -445 -106
-766 -251 -1037 -466 l-73 -58 0 2673 0 2674 68 65 c434 418 1454 614 2715
523z m1057 -55 c45 -88 37 -123 -18 -84 -19 13 -22 24 -22 80 0 35 2 64 5 64
3 0 18 -27 35 -60z m-8055 -287 c-14 -147 -35 -360 -45 -473 -11 -113 -24
-250 -30 -305 -6 -55 -30 -316 -55 -580 -25 -264 -56 -595 -70 -735 -14 -140
-45 -466 -70 -725 -59 -616 -207 -2019 -257 -2444 l-12 -105 -73 -78 c-40 -42
-73 -72 -73 -65 0 7 20 173 45 367 101 810 197 1654 280 2470 30 294 71 690
90 880 34 330 91 897 155 1530 48 468 43 442 92 506 27 34 44 49 46 40 2 -8
-8 -136 -23 -283z m1660 171 c77 -7 182 -19 234 -25 l93 -12 -7 -81 c-4 -44
-9 -83 -11 -85 -2 -2 -84 6 -181 17 -98 12 -230 27 -293 32 -193 18 -180 13
-180 69 0 27 3 63 6 81 l7 32 96 -7 c53 -3 159 -13 236 -21z m6423 -83 l30
-49 36 -549 c65 -967 174 -2504 241 -3373 90 -1181 106 -1402 102 -1407 -3 -2
-24 29 -47 69 -47 81 -41 40 -70 428 -61 825 -106 1459 -130 1820 -11 168 -33
499 -50 735 -16 237 -34 502 -40 590 -19 289 -39 607 -50 780 -6 94 -22 347
-35 564 -26 408 -27 441 -21 441 1 0 17 -22 34 -49z m-5951 23 c120 -17 412
-68 489 -84 l49 -11 -3 -82 c-2 -45 -5 -83 -6 -84 -1 -1 -71 11 -156 27 -151
28 -475 80 -498 80 -7 0 -12 14 -12 33 0 57 13 137 21 137 5 0 57 -7 116 -16z
m-557 -119 c85 -9 211 -23 279 -32 l124 -16 -7 -75 c-3 -41 -6 -102 -6 -135
l0 -60 -52 7 c-105 13 -475 54 -545 61 l-73 7 6 122 c7 157 3 149 66 142 29
-3 123 -13 208 -21z m1358 -36 c85 -21 193 -50 240 -65 l85 -25 -7 -77 c-4
-42 -9 -78 -11 -80 -2 -3 -64 12 -137 32 -73 20 -197 51 -275 68 l-143 32 0
84 0 84 46 -7 c25 -3 116 -24 202 -46z m5238 -1 c31 -48 30 -33 99 -1033 46
-670 313 -4005 351 -4380 l6 -60 -54 87 -54 87 -18 248 c-9 136 -33 448 -51
693 -31 396 -106 1392 -120 1590 -3 41 -17 228 -30 415 -14 187 -36 504 -50
705 -14 201 -36 525 -49 720 -14 195 -32 465 -40 600 -9 135 -19 273 -22 308
-7 74 -5 75 32 20z m-5979 -43 c87 -14 228 -38 313 -53 l155 -28 -4 -135 c-2
-74 -4 -135 -5 -136 -1 -1 -76 12 -166 29 -91 17 -241 42 -334 57 l-170 26 2
70 c4 143 13 195 32 195 10 0 89 -11 177 -25z m1193 -89 c158 -57 300 -120
408 -179 l72 -41 0 -73 c0 -40 -2 -73 -5 -73 -3 0 -46 20 -95 45 -113 57 -211
96 -370 150 -141 48 -139 45 -125 152 8 63 -3 61 115 19z m6585 -970 c-96 -78
-375 -210 -375 -178 0 6 12 13 28 17 40 10 259 118 312 153 54 37 77 42 35 8z
m55 -233 c-19 -14 -83 -76 -142 -136 -112 -115 -136 -130 -69 -43 52 67 103
115 175 165 65 45 92 55 36 14z m264 -66 c76 -39 186 -148 222 -218 l26 -53
-21 -43 c-20 -41 -106 -143 -120 -143 -3 0 -19 26 -36 58 -56 108 -181 216
-298 256 -16 5 -16 8 -4 28 8 13 31 54 52 92 l37 68 41 -6 c22 -4 68 -21 101
-39z m-1616 -287 c12 -284 8 -299 -85 -274 -40 11 -27 30 17 26 l41 -4 -1 243
c0 134 -1 248 0 254 0 6 3 6 9 0 5 -6 14 -116 19 -245z m226 139 c9 -89 10
-90 140 -87 l111 3 -4 73 c-3 66 -2 72 17 72 27 0 40 -147 14 -167 -22 -18
-262 -18 -286 0 -26 19 -39 167 -15 167 13 0 18 -14 23 -61z m1218 -60 c97
-50 225 -200 206 -242 -6 -12 -24 -58 -42 -102 -17 -44 -35 -79 -41 -79 -13 2
-129 184 -193 304 -49 90 -50 94 -34 116 21 29 51 30 104 3z m-1027 -439 c26
-116 69 -204 111 -223 l34 -17 0 32 c0 20 4 28 9 22 11 -10 101 -698 139
-1058 l7 -70 285 -260 c318 -291 520 -485 505 -485 -16 -1 -185 148 -504 443
-320 295 -398 362 -478 408 -58 33 -80 55 -36 36 34 -15 128 -67 164 -91 l27
-18 -5 48 c-2 26 -11 98 -18 158 -7 61 -30 256 -50 435 -20 179 -38 334 -40
345 -3 13 -25 31 -62 49 -60 29 -193 112 -193 120 0 3 34 -13 75 -35 41 -21
75 -37 75 -35 0 3 -13 37 -29 78 -36 90 -59 207 -66 336 l-5 97 19 -120 c11
-66 27 -154 36 -195z m-481 -206 c8 -98 18 -219 21 -269 42 -652 75 -1004 100
-1076 18 -50 11 -50 -15 1 -42 82 -56 191 -85 640 -8 129 -17 260 -20 290 -5
53 -35 605 -34 625 2 48 20 -66 33 -211z m1717 -2184 c-20 -127 -48 -180 -112
-212 -31 -16 -73 -44 -94 -64 -69 -63 -60 -22 15 72 40 49 99 136 133 193 67
114 74 115 58 11z m389 -57 c0 -38 -9 -122 -21 -188 -11 -66 -24 -201 -29
-300 -9 -180 -20 -243 -60 -345 -31 -79 -103 -192 -151 -235 -65 -58 -157 -93
-174 -65 -3 6 4 10 17 10 66 0 189 123 252 252 52 105 73 204 86 395 7 92 18
209 26 258 8 50 19 134 26 188 14 112 28 127 28 30z m-427 -308 c-2 -5 -21
-16 -43 -23 -22 -8 -54 -27 -71 -43 -37 -34 -39 -35 -39 -11 0 35 85 94 130
89 14 -1 24 -6 23 -12z m32 -105 c3 -6 -2 -13 -12 -16 -48 -15 -94 -39 -109
-55 -22 -24 -34 -24 -34 0 0 43 134 104 155 71z m-3095 -46 c334 -25 671 -69
998 -131 l142 -27 25 -44 c14 -25 23 -47 21 -49 -2 -2 -64 5 -137 16 -959 145
-1931 161 -2648 46 -486 -79 -861 -213 -1169 -419 l-107 -71 -55 13 c-70 17
-69 14 -20 59 399 363 1153 583 2150 627 143 6 606 -5 800 -20z m-5960 -14
c1438 -42 2163 -192 2716 -561 121 -82 121 -73 3 -96 -43 -9 -50 -7 -110 30
-462 282 -1077 430 -2069 499 -130 9 -462 13 -1122 13 l-937 0 56 57 57 58
185 3 c462 7 913 6 1221 -3z m9080 -44 c0 -8 -17 -20 -37 -26 -21 -7 -52 -23
-70 -36 -38 -29 -43 -30 -43 -4 0 23 33 47 92 65 56 18 58 18 58 1z m-735 -50
c26 -8 74 -31 106 -51 37 -23 72 -36 98 -38 49 -2 49 -5 12 -41 l-29 -28 -42
41 c-52 50 -127 87 -204 102 -54 10 -79 9 -158 -7 -17 -3 -28 -1 -28 5 0 29
165 41 245 17z m-2397 -37 c194 -10 517 -39 722 -64 156 -19 495 -66 495 -68
1 -1 13 -21 28 -44 34 -54 34 -56 -5 -49 -69 12 -672 76 -858 91 -1332 106
-2420 -46 -3028 -423 l-73 -45 -60 28 c-32 16 -59 31 -59 34 0 3 40 32 88 63
598 388 1500 545 2750 477z m-5523 -9 c998 -51 1735 -221 2190 -508 l40 -25
-36 -13 c-20 -6 -51 -19 -69 -29 l-32 -17 -142 71 c-694 345 -1849 476 -3695
421 -173 -5 -317 -7 -319 -5 -3 2 17 27 44 55 l50 51 409 9 c468 10 1264 4
1560 -10z m8680 -20 c3 -5 -14 -14 -37 -20 -24 -7 -57 -20 -75 -30 -32 -18
-43 -17 -43 6 0 31 138 71 155 44z m-793 -90 c53 -20 87 -44 76 -55 -3 -3 -26
6 -51 20 -57 32 -146 47 -214 36 -59 -9 -71 3 -20 18 46 15 144 6 209 -19z
m-8117 -10 c1022 -41 1799 -197 2250 -451 56 -31 56 -32 33 -47 -13 -8 -35
-26 -49 -39 l-27 -24 -58 29 c-409 206 -1065 343 -1894 397 -474 31 -1546 41
-2080 19 l-145 -6 56 57 56 57 239 7 c365 12 1338 12 1619 1z m5790 0 c217
-12 487 -33 690 -56 317 -34 560 -65 566 -72 3 -4 16 -25 29 -46 l24 -39 -75
6 c-41 4 -168 16 -284 27 -1584 150 -2768 40 -3496 -325 l-106 -53 -44 35
c-24 19 -46 36 -47 38 -6 6 184 114 272 155 375 172 879 283 1456 320 91 5
185 12 210 13 113 8 634 6 805 -3z m2296 -67 c43 -20 93 -63 71 -63 -6 0 -13
4 -17 9 -15 25 -142 55 -228 55 -82 -1 -100 6 -52 20 43 11 182 -2 226 -21z
m-8081 -73 c966 -48 1619 -169 2102 -392 l87 -40 -31 -39 c-29 -36 -32 -37
-57 -25 -220 113 -838 259 -1316 311 -582 63 -1537 80 -2635 45 -151 -4 -276
-7 -277 -7 -1 1 30 35 69 75 l70 74 401 8 c460 10 1300 4 1587 -10z m6150 -15
c260 -16 451 -31 778 -62 184 -17 184 -18 198 -45 18 -34 85 -33 -531 -7
-1361 58 -2186 6 -2866 -181 -163 -44 -359 -115 -461 -166 l-66 -33 -28 36
c-33 44 -33 45 106 111 634 301 1637 422 2870 347z m2329 -101 c-7 -8 -31 -25
-53 -36 -22 -11 -63 -35 -90 -54 -100 -65 -174 -79 -411 -79 -224 0 -286 10
-293 48 -3 15 0 17 15 9 36 -20 215 -35 337 -29 169 8 241 27 371 97 114 61
149 73 124 44z"/>
<path d="M10375 10195 c-50 -18 -68 -40 -54 -67 8 -15 18 -19 39 -15 78 16
132 18 184 7 77 -16 95 -1 49 40 -54 49 -141 62 -218 35z"/>
<path d="M9875 10107 c-40 -23 -86 -89 -72 -103 4 -5 20 -1 35 8 37 21 88 36
144 41 56 6 68 12 68 37 0 45 -108 55 -175 17z"/>
<path d="M11133 10181 c-65 -81 -88 -122 -63 -106 29 18 140 156 140 174 0 23
-17 8 -77 -68z"/>
<path d="M10449 9954 c-30 -36 -3 -124 38 -124 23 0 53 39 53 68 0 59 -59 95
-91 56z"/>
<path d="M11066 9929 c-50 -39 -78 -127 -36 -114 24 8 39 -38 21 -66 -17 -28
-13 -34 9 -14 25 22 27 81 4 106 -20 22 3 67 37 76 11 3 18 10 16 16 -6 19
-23 18 -51 -4z"/>
<path d="M10470 9641 c0 -5 20 -19 44 -30 51 -22 126 -93 126 -118 0 -10 5
-25 10 -33 7 -11 10 -4 10 27 0 30 -7 50 -26 73 -36 43 -164 106 -164 81z"/>
<path d="M10385 9338 c-38 -15 -67 -19 -119 -16 l-68 4 28 -24 c38 -33 127
-27 185 13 65 46 54 55 -26 23z"/>
<path d="M9977 9888 c-43 -32 -18 -128 33 -128 45 0 63 70 29 114 -23 29 -37
32 -62 14z"/>
<path d="M10300 8560 c-15 -28 4 -60 36 -60 31 0 54 41 34 65 -18 21 -57 19
-70 -5z"/>
<path d="M10235 8124 c-19 -20 -16 -43 8 -58 34 -22 73 27 47 59 -16 19 -35
19 -55 -1z"/>
<path d="M10182 7688 c-27 -27 -6 -68 35 -68 29 0 48 33 33 60 -12 22 -49 27
-68 8z"/>
<path d="M10175 7266 c-18 -27 -11 -53 16 -61 43 -14 69 53 30 75 -27 14 -28
13 -46 -14z"/>
<path d="M1860 8360 c0 -17 7 -20 43 -20 23 0 86 -3 140 -7 93 -6 97 -5 97 14
0 24 -51 33 -192 33 -81 0 -88 -2 -88 -20z"/>
<path d="M1938 8233 c23 -2 59 -2 80 0 20 2 1 4 -43 4 -44 0 -61 -2 -37 -4z"/>
<path d="M2123 8223 c15 -2 39 -2 55 0 15 2 2 4 -28 4 -30 0 -43 -2 -27 -4z"/>
<path d="M2268 8213 c12 -2 32 -2 45 0 12 2 2 4 -23 4 -25 0 -35 -2 -22 -4z"/>
<path d="M1834 8136 c-10 -26 -3 -28 138 -37 134 -8 156 -4 145 25 -5 13 -22
16 -80 16 -41 0 -102 3 -135 6 -52 6 -63 4 -68 -10z"/>
<path d="M4152 8078 c-28 -28 13 -73 44 -47 20 16 18 36 -5 49 -24 13 -24 13
-39 -2z"/>
<path d="M2759 8050 c-19 -13 -5 -43 24 -53 33 -11 62 9 52 35 -7 17 -57 29
-76 18z"/>
<path d="M2890 8025 c-19 -22 5 -45 46 -45 29 0 34 3 34 24 0 34 -57 49 -80
21z"/>
<path d="M1983 7973 c15 -2 39 -2 55 0 15 2 2 4 -28 4 -30 0 -43 -2 -27 -4z"/>
<path d="M2168 7963 c12 -2 30 -2 40 0 9 3 -1 5 -23 4 -22 0 -30 -2 -17 -4z"/>
<path d="M3429 7960 c-20 -13 -5 -43 26 -52 33 -9 62 10 52 35 -6 16 -60 27
-78 17z"/>
<path d="M2288 7953 c6 -2 18 -2 25 0 6 3 1 5 -13 5 -14 0 -19 -2 -12 -5z"/>
<path d="M2423 7943 c9 -2 23 -2 30 0 6 3 -1 5 -18 5 -16 0 -22 -2 -12 -5z"/>
<path d="M3559 7934 c-16 -20 -5 -41 27 -47 38 -7 56 2 52 26 -4 27 -62 42
-79 21z"/>
<path d="M2528 7933 c12 -2 30 -2 40 0 9 3 -1 5 -23 4 -22 0 -30 -2 -17 -4z"/>
<path d="M4713 7933 c-30 -12 1 -63 38 -63 30 0 36 30 10 52 -24 19 -28 20
-48 11z"/>
<path d="M2638 7923 c12 -2 30 -2 40 0 9 3 -1 5 -23 4 -22 0 -30 -2 -17 -4z"/>
<path d="M1817 7899 c-7 -26 -9 -26 146 -34 133 -6 137 -6 137 13 0 23 -25 27
-192 35 -78 4 -87 3 -91 -14z"/>
<path d="M2738 7913 c12 -2 30 -2 40 0 9 3 -1 5 -23 4 -22 0 -30 -2 -17 -4z"/>
<path d="M2823 7903 c9 -2 25 -2 35 0 9 3 1 5 -18 5 -19 0 -27 -2 -17 -5z"/>
<path d="M2908 7893 c12 -2 30 -2 40 0 9 3 -1 5 -23 4 -22 0 -30 -2 -17 -4z"/>
<path d="M2983 7883 c9 -2 25 -2 35 0 9 3 1 5 -18 5 -19 0 -27 -2 -17 -5z"/>
<path d="M4823 7873 c-4 -10 2 -23 17 -35 43 -34 79 -7 41 31 -25 25 -49 27
-58 4z"/>
<path d="M3063 7873 c9 -2 23 -2 30 0 6 3 -1 5 -18 5 -16 0 -22 -2 -12 -5z"/>
<path d="M3218 7853 c6 -2 18 -2 25 0 6 3 1 5 -13 5 -14 0 -19 -2 -12 -5z"/>
<path d="M3305 7840 c17 -4 44 -8 60 -8 25 0 24 2 -10 9 -51 10 -92 10 -50 -1z"/>
<path d="M3413 7823 c9 -2 23 -2 30 0 6 3 -1 5 -18 5 -16 0 -22 -2 -12 -5z"/>
<path d="M3473 7813 c9 -2 23 -2 30 0 6 3 -1 5 -18 5 -16 0 -22 -2 -12 -5z"/>
<path d="M4142 7793 c3 -32 44 -46 54 -19 8 21 -13 46 -38 46 -15 0 -19 -6
-16 -27z"/>
<path d="M3538 7803 c7 -3 16 -2 19 1 4 3 -2 6 -13 5 -11 0 -14 -3 -6 -6z"/>
<path d="M2740 7785 c-18 -22 -6 -41 30 -49 38 -7 50 -1 50 24 0 21 -4 25 -41
34 -18 4 -31 1 -39 -9z"/>
<path d="M3598 7793 c7 -3 16 -2 19 1 4 3 -2 6 -13 5 -11 0 -14 -3 -6 -6z"/>
<path d="M3658 7783 c7 -3 16 -2 19 1 4 3 -2 6 -13 5 -11 0 -14 -3 -6 -6z"/>
<path d="M2874 7765 c-9 -23 15 -45 48 -45 32 0 47 23 28 45 -16 20 -69 19
-76 0z"/>
<path d="M3698 7773 c6 -2 18 -2 25 0 6 3 1 5 -13 5 -14 0 -19 -2 -12 -5z"/>
<path d="M3758 7763 c7 -3 16 -2 19 1 4 3 -2 6 -13 5 -11 0 -14 -3 -6 -6z"/>
<path d="M3903 7733 c9 -2 23 -2 30 0 6 3 -1 5 -18 5 -16 0 -22 -2 -12 -5z"/>
<path d="M3958 7723 c7 -3 16 -2 19 1 4 3 -2 6 -13 5 -11 0 -14 -3 -6 -6z"/>
<path d="M2118 7713 c7 -3 16 -2 19 1 4 3 -2 6 -13 5 -11 0 -14 -3 -6 -6z"/>
<path d="M4008 7713 c7 -3 16 -2 19 1 4 3 -2 6 -13 5 -11 0 -14 -3 -6 -6z"/>
<path d="M3417 7703 c-16 -15 -6 -43 17 -49 52 -13 81 10 51 40 -17 16 -56 22
-68 9z"/>
<path d="M4058 7703 c7 -3 16 -2 19 1 4 3 -2 6 -13 5 -11 0 -14 -3 -6 -6z"/>
<path d="M4110 7690 c14 -4 34 -8 45 -8 16 0 15 2 -5 8 -14 4 -34 8 -45 8 -16
0 -15 -2 5 -8z"/>
<path d="M3547 7684 c-16 -16 -6 -44 17 -50 47 -11 76 5 58 33 -10 15 -64 28
-75 17z"/>
<path d="M4188 7673 c7 -3 16 -2 19 1 4 3 -2 6 -13 5 -11 0 -14 -3 -6 -6z"/>
<path d="M4707 7673 c-23 -22 8 -63 47 -63 28 0 20 49 -10 60 -30 12 -29 12
-37 3z"/>
<path d="M1797 7655 c-9 -21 -3 -23 138 -31 72 -4 132 -7 135 -8 3 -1 6 8 8
20 3 19 -3 21 -80 27 -138 11 -195 9 -201 -8z"/>
<path d="M2668 7663 c6 -2 18 -2 25 0 6 3 1 5 -13 5 -14 0 -19 -2 -12 -5z"/>
<path d="M4228 7663 c7 -3 16 -2 19 1 4 3 -2 6 -13 5 -11 0 -14 -3 -6 -6z"/>
<path d="M2768 7653 c6 -2 18 -2 25 0 6 3 1 5 -13 5 -14 0 -19 -2 -12 -5z"/>
<path d="M4278 7653 c7 -3 16 -2 19 1 4 3 -2 6 -13 5 -11 0 -14 -3 -6 -6z"/>
<path d="M4318 7643 c7 -3 16 -2 19 1 4 3 -2 6 -13 5 -11 0 -14 -3 -6 -6z"/>
<path d="M4358 7633 c7 -3 16 -2 19 1 4 3 -2 6 -13 5 -11 0 -14 -3 -6 -6z"/>
<path d="M4827 7623 c-14 -13 -6 -33 19 -49 23 -15 27 -16 41 -2 14 14 13 18
-6 37 -21 21 -42 27 -54 14z"/>
<path d="M3478 7553 c7 -3 16 -2 19 1 4 3 -2 6 -13 5 -11 0 -14 -3 -6 -6z"/>
<path d="M4130 7536 c0 -27 34 -46 52 -28 18 18 4 47 -25 50 -23 3 -27 0 -27
-22z"/>
<path d="M2721 7527 c-18 -22 9 -49 44 -45 33 3 47 34 23 49 -20 13 -54 11
-67 -4z"/>
<path d="M4690 7537 c0 -7 122 -48 127 -43 2 2 -16 10 -39 19 -60 21 -88 29
-88 24z"/>
<path d="M2859 7513 c-17 -20 -4 -40 30 -45 34 -5 57 12 48 36 -7 19 -65 26
-78 9z"/>
<path d="M4850 7477 c14 -8 36 -17 50 -21 l25 -7 -25 14 c-14 8 -36 17 -50 21
l-25 7 25 -14z"/>
<path d="M3918 7473 c7 -3 16 -2 19 1 4 3 -2 6 -13 5 -11 0 -14 -3 -6 -6z"/>
<path d="M3958 7463 c7 -3 16 -2 19 1 4 3 -2 6 -13 5 -11 0 -14 -3 -6 -6z"/>
<path d="M3400 7440 c-12 -23 7 -40 47 -43 24 -2 28 2 28 23 0 32 -60 48 -75
20z"/>
<path d="M4108 7433 c7 -3 16 -2 19 1 4 3 -2 6 -13 5 -11 0 -14 -3 -6 -6z"/>
<path d="M1777 7410 c-7 -27 -6 -27 144 -34 126 -6 139 -4 139 29 0 5 -72 13
-181 20 -92 6 -97 5 -102 -15z"/>
<path d="M3530 7410 c0 -23 40 -46 65 -36 10 3 15 15 13 28 -4 33 -78 40 -78
8z"/>
<path d="M4148 7423 c7 -3 16 -2 19 1 4 3 -2 6 -13 5 -11 0 -14 -3 -6 -6z"/>
<path d="M5000 7415 c14 -8 30 -14 35 -14 6 0 -1 6 -15 14 -14 8 -29 14 -35
14 -5 0 1 -6 15 -14z"/>
<path d="M4696 7405 c-7 -20 30 -57 52 -53 9 2 18 12 20 22 7 36 -59 64 -72
31z"/>
<path d="M4238 7403 c7 -3 16 -2 19 1 4 3 -2 6 -13 5 -11 0 -14 -3 -6 -6z"/>
<path d="M4833 7373 c-33 -12 -5 -63 35 -63 18 0 23 5 20 21 -3 24 -37 49 -55
42z"/>
<path d="M4515 7330 c11 -5 27 -9 35 -9 9 0 8 4 -5 9 -11 5 -27 9 -35 9 -9 0
-8 -4 5 -9z"/>
<path d="M4124 7285 c-4 -9 0 -23 9 -32 21 -21 49 -9 45 19 -4 28 -45 38 -54
13z"/>
<path d="M2704 7276 c-11 -29 4 -46 40 -46 58 0 57 42 -2 55 -24 5 -33 3 -38
-9z"/>
<path d="M2837 7256 c-9 -22 21 -48 52 -44 45 5 37 52 -10 56 -26 2 -38 -2
-42 -12z"/>
<path d="M3384 7185 c-9 -23 15 -45 48 -45 36 0 49 27 23 46 -25 19 -64 18
-71 -1z"/>
<path d="M4910 7190 c8 -5 20 -10 25 -10 6 0 3 5 -5 10 -8 5 -19 10 -25 10 -5
0 -3 -5 5 -10z"/>
<path d="M2348 7183 c6 -2 18 -2 25 0 6 3 1 5 -13 5 -14 0 -19 -2 -12 -5z"/>
<path d="M3520 7164 c-18 -20 3 -42 45 -46 42 -4 50 37 10 52 -35 13 -40 13
-55 -6z"/>
<path d="M4960 7170 c8 -5 20 -10 25 -10 6 0 3 5 -5 10 -8 5 -19 10 -25 10 -5
0 -3 -5 5 -10z"/>
<path d="M1757 7155 c-9 -21 0 -23 104 -30 52 -3 111 -8 132 -11 34 -4 37 -2
37 19 0 23 -4 24 -92 31 -141 10 -175 8 -181 -9z"/>
<path d="M4695 7143 c-7 -21 29 -56 54 -51 23 5 26 39 5 55 -25 18 -51 16 -59
-4z"/>
<path d="M5007 7149 c7 -7 15 -10 18 -7 3 3 -2 9 -12 12 -14 6 -15 5 -6 -5z"/>
<path d="M4827 7113 c-23 -22 25 -85 53 -68 17 11 11 43 -12 59 -25 18 -32 19
-41 9z"/>
<path d="M4115 7030 c-10 -15 14 -50 34 -50 21 0 33 22 25 45 -7 17 -49 20
-59 5z"/>
<path d="M2686 7014 c-10 -25 14 -45 48 -42 33 3 49 34 24 49 -22 15 -65 10
-72 -7z"/>
<path d="M2824 6995 c-9 -23 5 -34 46 -37 31 -3 35 0 35 22 0 31 -70 44 -81
15z"/>
<path d="M4880 6940 c8 -5 20 -10 25 -10 6 0 3 5 -5 10 -8 5 -19 10 -25 10 -5
0 -3 -5 5 -10z"/>
<path d="M3373 6924 c-7 -19 21 -44 48 -44 27 0 44 27 29 45 -17 20 -69 19
-77 -1z"/>
<path d="M1738 6914 c-32 -31 -2 -40 165 -48 101 -6 107 -5 107 14 0 10 -3 21
-7 23 -15 9 -258 19 -265 11z"/>
<path d="M3506 6903 c-9 -21 18 -43 51 -43 31 0 42 29 18 46 -26 19 -62 17
-69 -3z"/>
<path d="M4697 6893 c-14 -13 -7 -43 12 -53 33 -17 51 -12 51 15 0 31 -44 58
-63 38z"/>
<path d="M5000 6890 c8 -5 20 -10 25 -10 6 0 3 5 -5 10 -8 5 -19 10 -25 10 -5
0 -3 -5 5 -10z"/>
<path d="M4814 6835 c-11 -29 39 -63 64 -43 16 14 15 23 -4 42 -19 20 -53 21
-60 1z"/>
<path d="M2674 6766 c-11 -29 4 -46 40 -46 58 0 56 44 -2 56 -24 5 -33 3 -38
-10z"/>
<path d="M4107 6767 c-8 -22 16 -50 39 -45 31 6 26 52 -7 56 -16 2 -29 -3 -32
-11z"/>
<path d="M2807 6747 c-9 -23 8 -39 44 -40 30 -2 34 1 34 23 0 22 -5 25 -36 28
-24 2 -38 -2 -42 -11z"/>
<path d="M1853 6713 c9 -2 23 -2 30 0 6 3 -1 5 -18 5 -16 0 -22 -2 -12 -5z"/>
<path d="M1973 6703 c9 -2 25 -2 35 0 9 3 1 5 -18 5 -19 0 -27 -2 -17 -5z"/>
<path d="M3898 6693 c7 -3 16 -2 19 1 4 3 -2 6 -13 5 -11 0 -14 -3 -6 -6z"/>
<path d="M3364 6675 c-12 -31 38 -67 68 -48 10 6 10 41 1 46 -27 15 -64 16
-69 2z"/>
<path d="M3948 6683 c7 -3 16 -2 19 1 4 3 -2 6 -13 5 -11 0 -14 -3 -6 -6z"/>
<path d="M2313 6673 c9 -2 25 -2 35 0 9 3 1 5 -18 5 -19 0 -27 -2 -17 -5z"/>
<path d="M3988 6673 c6 -2 18 -2 25 0 6 3 1 5 -13 5 -14 0 -19 -2 -12 -5z"/>
<path d="M3499 6654 c-17 -21 -4 -41 31 -49 39 -9 60 7 44 32 -15 24 -60 34
-75 17z"/>
<path d="M1710 6641 c0 -16 11 -20 78 -25 42 -4 105 -9 140 -12 61 -6 62 -6
62 18 0 25 -2 25 -107 31 -164 11 -173 10 -173 -12z"/>
<path d="M2598 6643 c7 -3 16 -2 19 1 4 3 -2 6 -13 5 -11 0 -14 -3 -6 -6z"/>
<path d="M4697 6633 c-14 -13 -6 -43 14 -53 44 -24 68 16 27 44 -25 18 -32 19
-41 9z"/>
<path d="M4813 6573 c-7 -18 32 -56 51 -50 19 6 19 40 0 54 -24 18 -43 16 -51
-4z"/>
<path d="M3378 6533 c7 -3 16 -2 19 1 4 3 -2 6 -13 5 -11 0 -14 -3 -6 -6z"/>
<path d="M3438 6523 c7 -3 16 -2 19 1 4 3 -2 6 -13 5 -11 0 -14 -3 -6 -6z"/>
<path d="M2653 6504 c-8 -22 24 -46 57 -42 19 2 25 9 25 28 0 32 -70 44 -82
14z"/>
<path d="M4104 6506 c-10 -26 4 -46 31 -46 23 0 26 4 23 28 -3 31 -44 45 -54
18z"/>
<path d="M2799 6500 c-20 -13 -5 -43 26 -52 33 -9 62 10 52 35 -6 16 -60 27
-78 17z"/>
<path d="M4680 6490 c8 -5 20 -10 25 -10 6 0 3 5 -5 10 -8 5 -19 10 -25 10 -5
0 -3 -5 5 -10z"/>
<path d="M1713 6463 c9 -2 25 -2 35 0 9 3 1 5 -18 5 -19 0 -27 -2 -17 -5z"/>
<path d="M2113 6433 c9 -2 25 -2 35 0 9 3 1 5 -18 5 -19 0 -27 -2 -17 -5z"/>
<path d="M2213 6423 c9 -2 25 -2 35 0 9 3 1 5 -18 5 -19 0 -27 -2 -17 -5z"/>
<path d="M3350 6415 c-19 -22 5 -45 46 -45 43 0 49 35 8 50 -34 13 -39 13 -54
-5z"/>
<path d="M2418 6403 c6 -2 18 -2 25 0 6 3 1 5 -13 5 -14 0 -19 -2 -12 -5z"/>
<path d="M3490 6400 c-21 -13 -6 -43 25 -52 37 -10 66 12 46 35 -14 18 -55 27
-71 17z"/>
<path d="M4028 6403 c7 -3 16 -2 19 1 4 3 -2 6 -13 5 -11 0 -14 -3 -6 -6z"/>
<path d="M1690 6382 c0 -22 1 -22 203 -37 72 -5 77 -5 77 14 0 28 0 28 -147
36 -129 7 -133 6 -133 -13z"/>
<path d="M2508 6393 c6 -2 18 -2 25 0 6 3 1 5 -13 5 -14 0 -19 -2 -12 -5z"/>
<path d="M4118 6383 c7 -3 16 -2 19 1 4 3 -2 6 -13 5 -11 0 -14 -3 -6 -6z"/>
<path d="M2683 6373 c9 -2 25 -2 35 0 9 3 1 5 -18 5 -19 0 -27 -2 -17 -5z"/>
<path d="M4158 6373 c7 -3 16 -2 19 1 4 3 -2 6 -13 5 -11 0 -14 -3 -6 -6z"/>
<path d="M2773 6363 c9 -2 23 -2 30 0 6 3 -1 5 -18 5 -16 0 -22 -2 -12 -5z"/>
<path d="M4687 6363 c-11 -10 -8 -20 9 -37 20 -21 53 -20 61 0 10 28 -49 59
-70 37z"/>
<path d="M2848 6353 c6 -2 18 -2 25 0 6 3 1 5 -13 5 -14 0 -19 -2 -12 -5z"/>
<path d="M4817 6323 c-23 -22 8 -63 47 -63 28 0 20 49 -10 60 -30 12 -29 12
-37 3z"/>
<path d="M2644 6255 c-12 -30 4 -46 43 -43 58 5 55 40 -5 51 -24 5 -34 3 -38
-8z"/>
<path d="M4095 6250 c-9 -15 4 -47 22 -54 26 -10 47 17 34 43 -12 22 -45 28
-56 11z"/>
<path d="M2781 6236 c-9 -11 -8 -18 4 -30 20 -20 71 -21 79 -1 13 34 -58 61
-83 31z"/>
<path d="M1748 6203 c6 -2 18 -2 25 0 6 3 1 5 -13 5 -14 0 -19 -2 -12 -5z"/>
<path d="M1878 6193 c7 -3 16 -2 19 1 4 3 -2 6 -13 5 -11 0 -14 -3 -6 -6z"/>
<path d="M3888 6173 c7 -3 16 -2 19 1 4 3 -2 6 -13 5 -11 0 -14 -3 -6 -6z"/>
<path d="M2233 6163 c9 -2 23 -2 30 0 6 3 -1 5 -18 5 -16 0 -22 -2 -12 -5z"/>
<path d="M3334 6155 c-9 -23 15 -45 48 -45 36 0 49 27 23 46 -25 19 -64 18
-71 -1z"/>
<path d="M3928 6163 c7 -3 16 -2 19 1 4 3 -2 6 -13 5 -11 0 -14 -3 -6 -6z"/>
<path d="M3477 6144 c-28 -29 38 -79 69 -53 16 13 17 19 6 35 -9 14 -65 27
-75 18z"/>
<path d="M1670 6122 c0 -23 13 -25 193 -37 82 -6 87 -5 87 14 0 26 -12 28
-157 36 -119 7 -123 7 -123 -13z"/>
<path d="M4687 6103 c-16 -15 -6 -44 19 -53 31 -12 44 -6 44 20 0 27 -46 51
-63 33z"/>
<path d="M4808 6053 c-10 -13 -8 -19 11 -34 28 -23 50 -24 57 -4 13 33 -45 65
-68 38z"/>
<path d="M3188 6043 c7 -3 16 -2 19 1 4 3 -2 6 -13 5 -11 0 -14 -3 -6 -6z"/>
<path d="M2631 5996 c-19 -22 3 -46 41 -46 29 0 48 24 32 40 -19 18 -60 21
-73 6z"/>
<path d="M4084 5985 c-8 -20 13 -45 38 -45 24 0 34 26 18 45 -16 19 -49 19
-56 0z"/>
<path d="M2764 5975 c-9 -23 15 -45 48 -45 32 0 47 23 28 45 -16 20 -69 19
-76 0z"/>
<path d="M3324 5895 c-9 -23 15 -45 48 -45 36 0 49 27 23 46 -25 19 -64 18
-71 -1z"/>
<path d="M3978 5893 c7 -3 16 -2 19 1 4 3 -2 6 -13 5 -11 0 -14 -3 -6 -6z"/>
<path d="M2393 5883 c9 -2 23 -2 30 0 6 3 -1 5 -18 5 -16 0 -22 -2 -12 -5z"/>
<path d="M3464 5876 c-10 -25 2 -43 33 -49 37 -7 64 16 43 37 -24 24 -69 31
-76 12z"/>
<path d="M1657 5864 c-31 -31 0 -40 166 -50 104 -6 107 -5 107 15 0 12 -6 23
-12 25 -26 8 -255 16 -261 10z"/>
<path d="M4687 5843 c-16 -15 -6 -44 19 -53 31 -12 44 -6 44 20 0 27 -46 51
-63 33z"/>
<path d="M4811 5797 c-23 -23 -8 -48 35 -61 23 -7 38 13 28 38 -8 21 -49 37
-63 23z"/>
<path d="M2611 5732 c-14 -27 8 -44 50 -40 54 5 48 40 -8 52 -25 6 -34 3 -42
-12z"/>
<path d="M4080 5716 c0 -27 34 -46 52 -28 18 18 4 47 -25 50 -23 3 -27 0 -27
-22z"/>
<path d="M2751 5717 c-17 -21 13 -49 48 -45 20 2 26 8 26 28 0 30 -53 42 -74
17z"/>
<path d="M3314 5635 c-9 -23 15 -45 48 -45 36 0 49 27 23 46 -25 19 -64 18
-71 -1z"/>
<path d="M3454 5616 c-10 -25 2 -43 33 -49 37 -7 64 16 43 37 -24 24 -69 31
-76 12z"/>
<path d="M1635 5582 c-3 -3 -5 -14 -5 -24 0 -15 8 -18 48 -18 27 0 90 -3 140
-6 88 -7 92 -6 92 14 0 18 -8 21 -62 26 -114 10 -207 13 -213 8z"/>
<path d="M4675 5573 c-7 -19 26 -53 50 -53 24 0 27 34 5 52 -28 23 -46 23 -55
1z"/>
<path d="M4803 5523 c-7 -18 32 -56 51 -50 19 6 19 40 0 54 -24 18 -43 16 -51
-4z"/>
<path d="M2599 5473 c-17 -20 -4 -40 30 -45 34 -5 57 12 48 36 -7 19 -65 26
-78 9z"/>
<path d="M4074 5465 c-4 -9 0 -23 9 -32 21 -21 49 -9 45 19 -4 28 -45 38 -54
13z"/>
<path d="M2734 5455 c-9 -23 15 -45 48 -45 32 0 47 23 28 45 -16 20 -69 19
-76 0z"/>
<path d="M3304 5375 c-10 -25 3 -42 35 -47 52 -8 72 35 25 52 -36 14 -54 12
-60 -5z"/>
<path d="M3444 5355 c-10 -24 2 -42 32 -49 36 -9 66 17 44 38 -24 22 -69 29
-76 11z"/>
<path d="M4683 5323 c-33 -12 -5 -63 35 -63 18 0 23 5 20 21 -3 24 -37 49 -55
42z"/>
<path d="M1612 5302 c-9 -25 12 -30 144 -37 117 -7 132 -6 137 9 9 23 1 24
-147 34 -103 6 -129 5 -134 -6z"/>
<path d="M4807 5273 c-14 -13 -6 -43 14 -53 44 -24 68 16 27 44 -25 18 -32 19
-41 9z"/>
<path d="M2584 5206 c-12 -30 4 -47 38 -44 28 2 33 7 33 28 0 30 -60 44 -71
16z"/>
<path d="M4064 5205 c-8 -20 13 -45 38 -45 24 0 34 26 18 45 -16 19 -49 19
-56 0z"/>
<path d="M2724 5193 c-20 -21 -2 -40 41 -45 26 -3 30 0 30 21 0 32 -47 47 -71
24z"/>
<path d="M3294 5105 c-9 -22 14 -45 46 -45 31 0 47 25 29 46 -15 19 -68 18
-75 -1z"/>
<path d="M3437 5093 c-13 -12 -7 -41 9 -47 49 -19 89 8 58 39 -16 15 -55 20
-67 8z"/>
<path d="M4670 5035 c0 -26 41 -52 61 -39 16 9 10 43 -10 54 -33 17 -51 12
-51 -15z"/>
<path d="M1593 5023 c-10 -25 9 -30 145 -37 127 -7 132 -6 132 13 0 24 -20 28
-168 35 -85 3 -104 2 -109 -11z"/>
<path d="M4796 5001 c-10 -16 4 -38 31 -50 27 -12 42 -3 43 26 0 24 -62 44
-74 24z"/>
<path d="M4067 4954 c-12 -12 -8 -41 9 -54 22 -19 54 12 38 38 -12 19 -36 27
-47 16z"/>
<path d="M2564 4935 c-9 -22 14 -45 46 -45 35 0 49 29 24 47 -24 18 -63 16
-70 -2z"/>
<path d="M2703 4914 c-7 -19 4 -29 38 -38 31 -7 53 13 43 38 -8 22 -72 22 -81
0z"/>
<path d="M3284 4845 c-14 -34 57 -70 75 -37 13 24 3 38 -37 47 -25 5 -33 3
-38 -10z"/>
<path d="M3433 4833 c-23 -8 -14 -43 14 -54 35 -13 55 -4 51 23 -3 22 -40 39
-65 31z"/>
<path d="M4671 4786 c-16 -19 -3 -45 26 -52 31 -8 52 10 37 33 -15 24 -50 34
-63 19z"/>
<path d="M1570 4742 c0 -22 35 -28 203 -35 74 -2 77 -2 77 20 0 21 -4 23 -57
23 -32 0 -95 3 -140 7 -79 6 -83 5 -83 -15z"/>
<path d="M4795 4741 c-19 -32 40 -80 67 -53 11 11 -6 52 -22 52 -4 0 -15 3
-23 6 -8 3 -18 1 -22 -5z"/>
<path d="M4053 4684 c-8 -22 10 -49 33 -49 25 0 31 35 8 52 -24 17 -33 16 -41
-3z"/>
<path d="M2552 4668 c-20 -20 4 -48 43 -48 28 0 35 4 35 20 0 30 -56 50 -78
28z"/>
<path d="M2687 4647 c-9 -23 8 -39 44 -40 30 -2 34 1 34 23 0 22 -5 25 -36 28
-24 2 -38 -2 -42 -11z"/>
<path d="M1568 4583 c6 -2 18 -2 25 0 6 3 1 5 -13 5 -14 0 -19 -2 -12 -5z"/>
<path d="M3274 4575 c-9 -22 14 -45 46 -45 35 0 49 29 24 47 -24 18 -63 16
-70 -2z"/>
<path d="M3417 4563 c-13 -12 -7 -41 9 -47 37 -14 64 -7 64 18 0 28 -53 49
-73 29z"/>
<path d="M4667 4523 c-20 -19 10 -63 44 -63 14 0 19 7 19 25 0 31 -44 58 -63
38z"/>
<path d="M1550 4462 c0 -17 9 -20 73 -26 151 -12 212 -11 215 6 5 24 -1 25
-150 33 -134 7 -138 7 -138 -13z"/>
<path d="M4793 4463 c-7 -17 28 -53 52 -53 22 0 25 30 5 50 -24 24 -48 26 -57
3z"/>
<path d="M3168 4443 c7 -3 16 -2 19 1 4 3 -2 6 -13 5 -11 0 -14 -3 -6 -6z"/>
<path d="M4045 4420 c-9 -15 3 -47 22 -54 25 -10 51 20 37 42 -13 20 -49 28
-59 12z"/>
<path d="M2533 4384 c-7 -19 4 -29 38 -38 34 -8 58 16 39 39 -17 20 -69 19
-77 -1z"/>
<path d="M2674 4375 c-9 -23 15 -45 48 -45 32 0 47 23 28 45 -16 20 -69 19
-76 0z"/>
<path d="M3264 4305 c-9 -22 14 -45 46 -45 35 0 49 29 24 47 -24 18 -63 16
-70 -2z"/>
<path d="M1688 4293 c12 -2 32 -2 45 0 12 2 2 4 -23 4 -25 0 -35 -2 -22 -4z"/>
<path d="M3407 4293 c-16 -15 -6 -43 18 -49 34 -8 55 1 55 25 0 23 -56 42 -73
24z"/>
<path d="M1913 4283 c9 -2 25 -2 35 0 9 3 1 5 -18 5 -19 0 -27 -2 -17 -5z"/>
<path d="M4660 4235 c0 -26 32 -50 56 -41 20 8 17 44 -5 56 -33 17 -51 12 -51
-15z"/>
<path d="M4790 4185 c0 -26 32 -50 56 -41 20 8 17 44 -5 56 -33 17 -51 12 -51
-15z"/>
<path d="M1530 4183 c0 -25 37 -32 185 -34 95 -2 100 -1 103 20 3 20 -1 21
-66 21 -38 0 -103 3 -145 6 -73 7 -77 6 -77 -13z"/>
<path d="M4037 4148 c-7 -21 12 -48 34 -48 25 0 35 25 19 45 -15 18 -47 20
-53 3z"/>
<path d="M2522 4117 c-19 -22 7 -49 43 -45 31 3 52 48 23 48 -7 0 -22 3 -34 6
-11 3 -25 -1 -32 -9z"/>
<path d="M2662 4088 c4 -27 56 -44 76 -25 23 24 4 47 -40 47 -35 0 -39 -3 -36
-22z"/>
<path d="M3254 4035 c-11 -28 4 -45 41 -45 30 0 35 3 35 24 0 35 -64 53 -76
21z"/>
<path d="M3394 4015 c-11 -28 4 -45 41 -45 28 0 35 4 35 20 0 32 -66 53 -76
25z"/>
<path d="M1888 4003 c7 -3 16 -2 19 1 4 3 -2 6 -13 5 -11 0 -14 -3 -6 -6z"/>
<path d="M4657 3976 c-8 -20 14 -45 43 -48 17 -2 25 3 28 16 7 35 -59 64 -71
32z"/>
<path d="M2528 3963 c6 -2 18 -2 25 0 6 3 1 5 -13 5 -14 0 -19 -2 -12 -5z"/>
<path d="M4783 3924 c-7 -20 15 -43 47 -46 30 -4 38 22 15 46 -21 20 -54 21
-62 0z"/>
<path d="M1510 3891 c0 -16 11 -19 83 -24 154 -13 207 -9 207 12 0 21 -69 31
-212 31 -69 0 -78 -2 -78 -19z"/>
<path d="M4043 3893 c-18 -6 -16 -38 2 -53 20 -16 45 -6 45 19 0 22 -27 41
-47 34z"/>
<path d="M2503 3834 c-8 -21 21 -44 54 -44 28 0 40 24 23 45 -17 20 -69 19
-77 -1z"/>
<path d="M2650 3825 c-10 -12 -10 -18 0 -31 19 -21 74 -15 78 10 7 34 -54 50
-78 21z"/>
<path d="M3243 3754 c-7 -19 4 -31 38 -39 33 -8 58 17 39 40 -17 20 -69 19
-77 -1z"/>
<path d="M3391 3747 c-18 -18 -12 -37 16 -48 35 -13 55 -4 51 23 -3 25 -50 42
-67 25z"/>
<path d="M4654 3705 c-12 -30 51 -70 68 -43 11 18 10 25 -8 42 -19 20 -53 21
-60 1z"/>
<path d="M4784 3655 c-11 -29 39 -63 64 -43 16 14 15 23 -4 42 -19 20 -53 21
-60 1z"/>
<path d="M4029 3614 c-9 -11 -10 -20 -2 -32 14 -23 49 -27 57 -7 12 33 -33 65
-55 39z"/>
<path d="M4650 3430 c0 -22 43 -55 60 -45 14 8 13 38 -2 53 -20 20 -58 15 -58
-8z"/>
<path d="M4780 3380 c0 -22 43 -55 60 -45 17 10 11 44 -9 55 -31 16 -51 12
-51 -10z"/>
<path d="M11643 7607 c-17 -6 -34 -14 -37 -17 -2 -3 58 -5 135 -5 131 0 138 1
107 14 -43 19 -164 24 -205 8z"/>
<path d="M6892 7707 c-12 -15 3 -2673 16 -2817 7 -77 29 -105 50 -63 10 21 -4
2659 -16 2798 -7 92 -22 116 -50 82z"/>
<path d="M7703 7394 c-3 -10 -1 -313 6 -673 29 -1594 27 -1551 69 -1525 15 10
17 33 14 240 -7 636 -35 1941 -41 1954 -12 22 -40 24 -48 4z"/>
<path d="M7002 7387 c-8 -9 -8 -230 -2 -762 5 -413 10 -895 11 -1072 2 -343 5
-372 46 -347 17 11 18 38 14 543 l-4 531 21 0 c16 0 22 -7 23 -22 1 -13 4
-129 8 -258 l6 -235 25 0 25 0 2 205 c2 113 0 354 -5 535 l-7 330 -25 0 -25 0
-3 -272 c-2 -265 -3 -273 -22 -273 -11 0 -20 1 -21 3 0 1 -4 247 -9 546 -6
445 -10 545 -21 552 -19 12 -25 11 -37 -4z"/>
<path d="M6791 7151 c-13 -8 -14 -895 -2 -1436 l6 -280 25 0 25 0 -3 840 c-2
462 -6 847 -8 857 -6 20 -26 29 -43 19z"/>
<path d="M7603 7104 c-6 -16 14 -1411 22 -1538 3 -52 14 -75 36 -76 27 -1 29
39 19 506 -21 1018 -23 1099 -33 1112 -13 17 -36 15 -44 -4z"/>
<path d="M7820 7105 c-10 -12 -9 -178 5 -802 18 -832 18 -837 61 -802 19 15
18 105 -7 1149 -11 469 -16 507 -59 455z"/>
<path d="M6224 7032 c-16 -15 -17 -49 -11 -399 l6 -383 -25 0 -24 0 0 244 c0
255 -4 278 -45 262 -13 -5 -15 -42 -15 -261 0 -248 -1 -255 -20 -255 -19 0
-20 7 -20 144 0 150 -7 174 -44 160 -14 -5 -16 -27 -16 -160 0 -147 -1 -154
-20 -154 -19 0 -20 7 -20 104 0 113 -12 143 -46 115 -14 -12 -16 -29 -10 -121
6 -104 6 -108 -14 -108 -18 0 -20 7 -20 54 0 40 -4 55 -16 60 -27 10 -34 -3
-34 -65 0 -46 -3 -59 -15 -59 -8 0 -15 8 -15 19 0 32 -29 49 -46 26 -8 -10
-14 -26 -14 -35 0 -25 -10 -30 -31 -17 -14 9 -22 8 -36 -5 -10 -8 -40 -18 -66
-21 -53 -5 -62 -10 -52 -27 5 -8 23 -9 55 -5 32 4 55 2 68 -6 18 -11 24 -10
40 4 22 20 32 13 32 -20 0 -36 37 -31 45 7 11 51 34 37 37 -22 3 -45 6 -53 23
-53 17 0 20 8 23 58 3 50 6 57 24 57 20 0 20 -4 17 -112 -4 -108 -3 -113 16
-113 16 0 21 8 23 35 1 19 5 42 9 50 3 8 6 44 7 80 1 53 4 65 19 68 15 3 17
-8 17 -131 0 -115 2 -136 16 -141 37 -14 44 11 44 150 0 127 1 134 20 134 19
0 20 -7 20 -224 0 -234 4 -255 44 -240 14 5 16 33 16 240 l0 234 25 0 25 0 0
-369 c0 -315 2 -370 15 -381 12 -10 18 -10 30 0 13 11 15 66 15 386 0 367 0
374 20 374 18 0 20 -7 20 -83 0 -206 13 -386 28 -392 40 -15 44 8 41 249 -2
209 -1 231 14 234 15 3 17 -9 17 -101 0 -109 9 -134 43 -121 13 5 17 26 19
117 2 74 7 112 15 114 8 3 13 -11 15 -39 2 -35 7 -43 23 -43 16 0 21 8 23 43
2 28 8 42 18 42 11 0 14 -17 14 -79 0 -81 6 -96 34 -85 12 4 16 25 18 87 2 65
6 82 18 82 13 0 15 -32 18 -217 2 -206 3 -217 22 -223 43 -14 43 -15 37 493
-5 500 -7 519 -45 496 -15 -10 -17 -36 -19 -255 -1 -134 -4 -243 -7 -241 -4 1
-10 2 -16 2 -5 0 -11 39 -12 88 -3 79 -5 87 -23 87 -18 0 -20 -8 -23 -92 -2
-74 -6 -93 -17 -93 -11 0 -15 12 -15 44 0 48 -8 60 -34 50 -11 -4 -16 -19 -16
-50 0 -32 -4 -44 -15 -44 -13 0 -15 20 -15 120 0 98 -3 122 -15 126 -36 14
-45 -14 -45 -137 0 -112 -1 -119 -20 -119 -19 0 -20 7 -20 249 0 260 -2 270
-42 249 -16 -8 -18 -31 -18 -258 0 -243 -1 -250 -20 -250 -20 0 -20 7 -21 370
-1 204 -3 375 -4 380 -1 6 -3 14 -4 19 -2 18 -31 20 -47 3z"/>
<path d="M7503 6794 c-3 -9 -4 -121 -1 -250 5 -223 4 -234 -13 -234 -17 0 -19
9 -19 94 0 97 -11 125 -45 112 -12 -4 -15 -25 -15 -106 0 -76 -3 -100 -13
-100 -9 0 -17 22 -23 63 -8 52 -12 62 -29 62 -18 0 -20 -8 -23 -62 -3 -55 -6
-63 -22 -63 -18 0 -20 10 -22 153 l-3 152 -25 0 -25 0 -3 -311 c-2 -275 0
-313 14 -325 11 -9 20 -10 32 -2 15 9 17 31 17 149 0 117 2 139 15 139 11 0
16 -16 20 -60 5 -56 7 -60 30 -60 24 0 25 3 28 63 2 43 7 62 16 62 15 0 32
-124 21 -152 -8 -20 21 -49 40 -42 12 5 15 27 15 101 0 85 2 94 18 91 15 -3
17 -24 22 -225 3 -139 9 -226 16 -233 12 -12 40 -4 47 13 5 15 -12 957 -18
975 -6 17 -44 15 -52 -4z"/>
<path d="M7924 6795 c-4 -9 -4 -127 0 -261 7 -220 6 -243 -8 -238 -9 3 -16 1
-16 -5 0 -6 7 -11 15 -11 12 0 15 -18 16 -92 1 -51 4 -160 8 -243 l6 -150 25
0 25 0 -4 390 c-5 545 -10 619 -39 623 -14 2 -25 -3 -28 -13z"/>
<path d="M8305 6790 c-4 -6 -3 -121 1 -255 6 -215 5 -245 -8 -245 -12 0 -16
20 -20 101 -5 102 -14 126 -42 116 -13 -5 -16 -25 -16 -107 0 -82 -3 -100 -15
-100 -12 0 -15 14 -15 64 0 67 -15 94 -45 82 -11 -4 -15 -22 -15 -75 0 -64 -1
-69 -20 -64 -19 5 -20 14 -20 133 0 102 -3 132 -15 144 -17 16 -44 12 -46 -8
-2 -39 2 -305 7 -429 l7 -148 26 3 26 3 -1 128 c-1 117 0 127 17 127 16 0 19
-8 19 -48 0 -55 19 -88 44 -79 12 5 16 20 16 67 0 53 2 60 20 60 18 0 20 -7
20 -89 0 -91 11 -119 39 -102 10 7 13 33 12 100 -1 58 2 91 8 91 6 0 14 1 19
3 4 1 12 -104 17 -233 l10 -235 25 0 25 0 0 120 c0 145 -25 831 -31 863 -5 23
-37 31 -49 12z"/>
<path d="M8415 6584 c-8 -9 -13 -25 -10 -37 2 -12 7 -142 11 -289 7 -279 10
-299 50 -284 15 6 16 31 10 279 -4 149 -10 286 -13 304 -6 37 -26 48 -48 27z"/>
<path d="M8513 6464 c-10 -26 5 -366 17 -378 7 -7 16 -7 28 0 14 9 16 24 13
83 -3 60 -1 71 13 71 12 0 16 -11 16 -49 0 -56 21 -84 45 -60 11 11 13 38 7
139 -7 120 -8 125 -29 128 -22 3 -23 0 -23 -57 0 -46 -4 -61 -14 -61 -10 0
-16 24 -21 93 -7 83 -15 106 -38 107 -4 0 -10 -7 -14 -16z"/>
<path d="M8700 6261 c0 -58 4 -80 14 -84 17 -7 36 11 36 35 0 10 7 18 15 18 8
0 15 -4 15 -10 0 -5 9 -10 20 -10 11 0 20 5 20 10 0 6 28 10 65 10 51 0 65 3
65 15 0 12 -13 15 -60 15 -45 0 -62 4 -66 15 -7 17 -44 21 -44 5 0 -5 -9 -10
-21 -10 -13 0 -19 5 -16 13 7 19 -11 57 -28 57 -12 0 -15 -15 -15 -79z"/>
<path d="M2770 8295 c-18 -22 4 -45 45 -45 56 0 55 42 -1 54 -22 5 -35 2 -44
-9z"/>
<path d="M2910 8285 c-24 -29 25 -64 67 -48 14 5 18 39 6 46 -26 14 -62 15
-73 2z"/>
<path d="M3440 8215 c-22 -27 38 -70 71 -49 8 4 13 44 6 44 -1 0 -16 4 -34 9
-23 7 -35 6 -43 -4z"/>
<path d="M3566 8191 c-10 -16 5 -41 30 -47 35 -9 56 2 52 28 -3 25 -70 40 -82
19z"/>
  </g>
</svg>